<?xml version="1.0" standalone="no"?>
<!DOCTYPE svg PUBLIC "-//W3C//DTD SVG 1.1//EN" "http://www.w3.org/Graphics/SVG/1.1/DTD/svg11.dtd" >
<svg xmlns="http://www.w3.org/2000/svg">
<metadata></metadata>
<defs>
<font id="frutiger-normalregular" horiz-adv-x="1099" >
<font-face units-per-em="2048" ascent="1638" descent="-410" />
<missing-glyph horiz-adv-x="569" />
<glyph horiz-adv-x="2048" />
<glyph horiz-adv-x="2048" />
<glyph unicode="&#xd;" horiz-adv-x="2048" />
<glyph unicode=" "  horiz-adv-x="569" />
<glyph unicode="&#x09;" horiz-adv-x="569" />
<glyph unicode="&#xa0;" horiz-adv-x="569" />
<glyph unicode="!" horiz-adv-x="800" d="M332 1366h225l-25 -987h-167zM344 0v211h213v-211h-213z" />
<glyph unicode="&#x22;" horiz-adv-x="665" d="M86 1475h203l-31 -547h-141zM375 1475h205l-33 -547h-139z" />
<glyph unicode="#" d="M41 414l20 131h177l47 301h-176l22 131h182l62 389h153l-61 -383h264l62 383h153l-61 -389h178l-21 -131h-180l-47 -301h182l-20 -131h-182l-66 -414h-154l66 414h-264l-66 -414h-153l65 414h-182zM397 545h265l49 301h-267z" />
<glyph unicode="$" d="M96 1010q0 158 101.5 255t281.5 111v172h107v-170q35 0 72.5 -4t76.5 -10q47 -8 94.5 -18.5t88.5 -24.5l-19 -184q-33 16 -62.5 27.5t-58.5 19.5q-43 14 -89 22t-103 13v-418q12 -4 23.5 -8.5t23.5 -10.5q137 -51 250.5 -133t113.5 -254q0 -166 -113.5 -275.5 t-308.5 -127.5v-174h-104v170q-57 4 -112.5 10t-110.5 18q-33 6 -65.5 15.5t-65.5 17.5l14 199q41 -20 79 -35.5t75 -26.5q45 -12 90 -18t96 -8v477q-6 2 -13 4t-16 4q-129 43 -237.5 128t-108.5 237zM295 1030q0 -63 37 -104t127 -80q4 -2 9 -4t11 -4v370q-88 -14 -136 -62 t-48 -116zM575 164h3.5h3.5q82 14 149.5 69.5t67.5 145.5q0 72 -56.5 128t-167.5 93v-436z" />
<glyph unicode="%" horiz-adv-x="1665" d="M47 1036q0 166 86 259.5t238 93.5q156 0 239.5 -91.5t83.5 -261.5q0 -162 -87 -259t-234 -97q-152 0 -239 95t-87 261zM201 1030q0 -109 45 -171t125 -62t125 62.5t45 174.5q0 113 -44 176.5t-124 63.5q-82 0 -127 -64.5t-45 -179.5zM332 -84l868 1534h129l-868 -1534 h-129zM969 334q0 166 86 259t237 93q156 0 240 -91t84 -259q0 -164 -87 -259t-235 -95q-152 0 -238.5 93t-86.5 259zM1122 330q0 -111 45 -173.5t125 -62.5q82 0 126 62.5t44 175.5q0 115 -44 177t-122 62q-82 0 -128 -63.5t-46 -177.5z" />
<glyph unicode="&#x26;" horiz-adv-x="1425" d="M162 375q0 156 91 245t222 144q-49 43 -89 105.5t-56 129.5q-4 18 -6 36t-2 36q0 152 109.5 229.5t246.5 77.5h3h3q125 -2 230.5 -74.5t105.5 -209.5q0 -127 -90 -219.5t-199 -143.5l270 -325q45 78 63.5 162.5t22.5 172.5h183q0 -20 -2 -40.5t-4 -41.5 q-12 -104 -45 -203.5t-101 -181.5l232 -274h-240l-109 129q-78 -76 -168 -115t-202 -39q-176 0 -322.5 102.5t-146.5 297.5zM369 381q0 -104 79.5 -175t180.5 -71q80 0 145.5 37t118.5 90l-320 385q-80 -45 -142 -104.5t-62 -161.5zM512 1069q0 -55 28.5 -104.5t63.5 -92.5 q8 -8 14.5 -16t12.5 -16q14 8 28.5 16t28.5 18q55 37 102.5 87.5t47.5 117.5q0 68 -50.5 104t-109.5 38h-3h-3q-63 0 -111.5 -43t-48.5 -109z" />
<glyph unicode="'" horiz-adv-x="374" d="M86 1475h203l-31 -547h-141z" />
<glyph unicode="(" horiz-adv-x="724" d="M127 483v25.5v26.5q0 256 93 490.5t224 449.5h174q-141 -254 -214.5 -497t-73.5 -443q0 -205 75.5 -446t221.5 -505l-176 -2q-156 244 -236 464t-88 437z" />
<glyph unicode=")" horiz-adv-x="724" d="M98 1475h176q156 -242 236 -463t88 -439v-25v-26q0 -256 -92 -489.5t-225 -448.5l-175 -2q141 256 215 498t74 442q0 205 -75.5 446.5t-221.5 506.5z" />
<glyph unicode="*" d="M168 1145l43 137l276 -100l-10 293h146l-13 -293l279 102l45 -139l-281 -80l183 -231l-119 -86l-164 243l-162 -243l-117 83l177 234z" />
<glyph unicode="+" d="M78 623v149h395v383h152v-383h395v-149h-395v-383h-152v383h-395z" />
<glyph unicode="," horiz-adv-x="546" d="M41 -264l123 483h219l-170 -483h-172z" />
<glyph unicode="-" horiz-adv-x="514" d="M0 428v154h514v-154h-514z" />
<glyph unicode="." horiz-adv-x="546" d="M164 0v219h219v-219h-219z" />
<glyph unicode="/" horiz-adv-x="890" d="M-59 -418l692 1893h158l-687 -1893h-163z" />
<glyph unicode="0" d="M86 692q0 41 2 84t6 86q23 199 121 363t334 164q240 0 337 -167t120 -368q4 -45 6 -92t2 -90q0 -41 -2 -83t-6 -85q-20 -199 -119 -364t-338 -165q-231 0 -328.5 161t-122.5 358q-6 49 -9 100t-3 98zM285 686q0 -45 3 -105.5t11 -123.5q18 -121 74.5 -222.5t179.5 -101.5 q129 0 195.5 139.5t66.5 409.5q0 264 -68.5 405.5t-199.5 141.5q-125 0 -193.5 -141.5t-68.5 -401.5z" />
<glyph unicode="1" d="M213 1087l336 279h180v-1366h-194v829v81t2 81v81v81q-27 -35 -62 -65.5t-69 -61.5q-23 -16 -44.5 -33.5t-39.5 -34.5z" />
<glyph unicode="2" d="M109 0v207q51 43 123.5 106.5t150.5 139.5q57 55 114.5 116.5t104.5 124.5q61 80 100 159t39 148q0 96 -75.5 159t-192.5 63q-76 0 -151.5 -24.5t-159.5 -74.5l-21 176q68 29 122 46.5t104 25.5q33 6 66.5 8t70.5 2q201 0 323.5 -104t122.5 -270q0 -14 -1 -27.5t-3 -28.5 q-12 -115 -94 -238.5t-256 -299.5q-80 -80 -146.5 -139.5t-130.5 -106.5q-4 -4 -9 -8t-11 -8q35 8 72 9t73 1h535v-162h-870z" />
<glyph unicode="3" d="M109 37l8 182q76 -33 140.5 -51t127.5 -23q16 -2 32.5 -3t33.5 -1q133 0 218 67.5t85 172.5q0 121 -86 173t-191 67q-33 4 -63.5 6t-59.5 2h-8h-8h-21.5t-25.5 -2v166q39 0 87 2t99 8q102 14 187.5 60t85.5 157q0 90 -77 147.5t-200 57.5q-25 0 -47.5 -1t-44.5 -5 q-53 -6 -105.5 -21.5t-111.5 -40.5l-14 168q39 14 77.5 24.5t75.5 18.5q43 8 88 12t92 4h8.5h10.5q166 -4 306 -83.5t140 -276.5q0 -125 -91 -213t-236 -100q154 -8 248 -103.5t94 -242.5q0 -174 -136.5 -277.5t-365.5 -103.5q-37 0 -75 3t-77 7q-51 6 -102 17.5t-98 25.5z " />
<glyph unicode="4" d="M43 299v162l553 905h281v-905h180v-162h-180v-299h-195v299h-639zM238 461h45h399v540q0 37 3 75t5 75q2 8 3 17.5t1 17.5q2 29 5 57.5t6 56.5q-2 -4 -3.5 -8t-3.5 -8q-23 -66 -64.5 -147.5t-135.5 -243.5l-131 -221q-4 -8 -9.5 -17.5t-11.5 -17.5q-6 -12 -12 -23.5 t-12 -21.5q-20 -35 -41 -67.5t-43 -63.5z" />
<glyph unicode="5" d="M170 33l6 180q63 -29 117.5 -44t105.5 -22q14 0 27.5 -1t26.5 -1q145 0 235 77t90 200q0 127 -93 201.5t-249 74.5q-18 0 -35.5 -1t-33.5 -3q-45 -4 -90.5 -14t-96.5 -29l8 707h758v-162h-575l-6 -254q0 -27 -1.5 -53.5t-3.5 -50.5q10 4 20.5 6t20.5 4q25 6 51.5 8 t59.5 2q213 0 344 -117.5t131 -308.5q0 -203 -144.5 -323.5t-387.5 -120.5q-31 0 -60.5 2t-58.5 6q-39 4 -80 13t-86 24z" />
<glyph unicode="6" d="M106 639q0 367 141.5 557t414.5 190q27 0 52 -1t52 -5q43 -4 87 -13t89 -24l-24 -174q-39 18 -76 30.5t-74 19.5q-25 4 -50.5 6t-49.5 2q-180 0 -265.5 -129t-101.5 -285q-4 -25 -5 -48.5t-1 -47.5q41 70 125 110.5t184 40.5q178 0 293 -122.5t115 -313.5 q0 -201 -123 -328t-318 -127q-227 0 -346 169t-119 493zM317 436q0 -129 72 -215t178 -86t176 81t70 206t-70.5 206t-179.5 81q-106 0 -176 -77t-70 -196z" />
<glyph unicode="7" d="M104 1194v162h873v-162l-512 -1194h-217l407 930q6 12 10.5 23.5t10.5 21.5q2 6 5 11t5 11q23 51 47.5 101.5t50.5 99.5h-28.5t-28.5 -2q-14 0 -28.5 -1t-28.5 -1h-566z" />
<glyph unicode="8" d="M78 352q0 145 86 236.5t213 136.5q-119 25 -193.5 116t-74.5 214q0 152 112.5 230.5t245.5 96.5q20 2 38.5 3t37.5 1q25 0 50 -2t50 -6q125 -23 229.5 -99.5t104.5 -217.5q0 -119 -75 -201t-179 -127q127 -41 213 -134t86 -234q0 -190 -139.5 -289t-315.5 -99 q-23 0 -47 2.5t-47 4.5q-150 20 -272.5 110t-122.5 258zM289 375q0 -113 86 -176.5t190 -63.5h3h3q94 2 172 57.5t78 155.5q0 106 -72.5 168t-160.5 100q-18 8 -37 15.5t-35 13.5q-8 -4 -17.5 -8t-17.5 -10q-72 -41 -132 -102.5t-60 -149.5zM307 1051q0 -72 56.5 -124.5 t123.5 -86.5q27 -14 53.5 -25.5t49.5 -21.5l12 8l12 8q61 43 111.5 103.5t50.5 138.5q0 82 -62.5 130t-138.5 56q-8 0 -17 1t-17 1q-10 0 -21.5 -1t-23.5 -3q-72 -12 -130.5 -59.5t-58.5 -124.5z" />
<glyph unicode="9" d="M80 940q0 199 123 326t313 127q227 0 347 -167t120 -485q0 -377 -142.5 -569t-418.5 -192q-25 0 -47.5 1t-44.5 3q-39 4 -82 13t-98 26l24 174q35 -16 68.5 -28.5t64.5 -18.5q29 -6 56.5 -9.5t58.5 -3.5q178 0 260 126t104 278q4 27 7.5 52t5.5 52q-57 -74 -133 -110.5 t-174 -36.5q-182 0 -297 122.5t-115 319.5zM279 946q0 -125 71.5 -207t177.5 -82q104 0 174 78t70 197q0 129 -70.5 215t-177.5 86q-106 0 -175.5 -81t-69.5 -206z" />
<glyph unicode=":" horiz-adv-x="546" d="M164 0v219h219v-219h-219zM164 782v219h219v-219h-219z" />
<glyph unicode=";" horiz-adv-x="546" d="M41 -264l123 483h219l-168 -483h-174zM145 782v217h217v-217h-217z" />
<glyph unicode="&#x3c;" horiz-adv-x="1024" d="M68 612v158l886 428v-184l-690 -322l690 -323v-183z" />
<glyph unicode="=" d="M78 477v150h942v-150h-942zM78 764v149h942v-149h-942z" />
<glyph unicode="&#x3e;" horiz-adv-x="1024" d="M70 186v185l690 321l-690 324v182l886 -428v-158z" />
<glyph unicode="?" horiz-adv-x="1042" d="M199 1327q55 18 105 31.5t97 19.5q33 4 66 6t68 2q182 0 298.5 -97t116.5 -253q0 -25 -3 -48t-9 -48q-14 -57 -56 -121.5t-122 -156.5q-39 -43 -62.5 -75t-35.5 -59q-14 -31 -18.5 -64.5t-4.5 -82.5h-176q0 86 11 143.5t42 106.5q10 20 25.5 39.5t33.5 40.5 q10 12 22.5 25.5t25.5 27.5q47 53 86 114.5t39 135.5q0 92 -66 146t-176 54q-14 0 -28.5 -1t-28.5 -1q-57 -6 -116 -24.5t-120 -48.5zM449 0v213h208v-213h-208z" />
<glyph unicode="@" horiz-adv-x="1562" d="M98 678q0 301 207 507t510 206q281 0 465 -172t184 -435q0 -193 -102 -337t-236 -144q-59 0 -100 35t-51 94q-43 -66 -110.5 -103.5t-145.5 -37.5q-123 0 -205 92t-82 233v21.5t2 21.5q14 139 108.5 257t248.5 118q78 0 133 -34.5t84 -104.5l22 115h131l-82 -420 q-6 -31 -9 -55.5t-3 -40.5q0 -35 19.5 -58.5t46.5 -23.5q84 0 148.5 113.5t64.5 256.5q0 215 -147.5 352.5t-379.5 137.5q-250 0 -421 -172t-171 -424q0 -260 171 -422t425 -162q119 0 222.5 21.5t197.5 64.5l33 -119q-100 -43 -212 -63.5t-237 -20.5q-307 0 -518 193.5 t-211 509.5zM580 623q0 -88 48 -143.5t124 -55.5q90 0 152.5 84t62.5 207q0 82 -44 131t-118 49q-92 0 -158.5 -81t-66.5 -191z" />
<glyph unicode="A" horiz-adv-x="1398" d="M10 0l582 1366h205l592 -1366h-220l-143 346h-664l-141 -346h-211zM424 512h534l-157 381q-33 74 -62.5 150.5t-48.5 154.5q-2 -8 -4 -15t-4 -16q-2 -4 -4 -10t-2 -12q-14 -39 -34.5 -91.5t-66.5 -164.5z" />
<glyph unicode="B" horiz-adv-x="1185" d="M176 0v1366h324q74 0 109.5 -1t64.5 -5q6 0 12 -1t12 -1q156 -20 245 -111.5t89 -230.5q0 -137 -82 -215t-209 -107q141 -20 235.5 -95t94.5 -232q0 -100 -48 -182.5t-138 -129.5q-55 -31 -127 -43t-193 -12h-389zM371 166h149q25 0 49.5 1t51.5 5q94 10 171.5 55 t77.5 158q0 131 -88 178t-192 58q-31 2 -60.5 3t-56.5 1h-102v-459zM371 784h139q20 0 41.5 1t44.5 3q90 8 166 50.5t76 152.5q0 113 -77 154t-169 49q-31 2 -61.5 3t-59.5 1h-100v-414z" />
<glyph unicode="C" horiz-adv-x="1189" d="M98 690q0 303 201 493.5t516 190.5q92 0 167 -14t144 -45l-16 -187q-39 23 -71.5 37.5t-65.5 24.5q-35 10 -71 14t-77 4q-229 0 -373.5 -143t-144.5 -371q0 -229 149.5 -379.5t377.5 -150.5h25t26 2q57 4 115.5 18.5t125.5 40.5l15 -188q-31 -10 -58.5 -17.5t-54.5 -13.5 q-43 -6 -88 -10t-100 -4q-322 0 -532 182t-210 516z" />
<glyph unicode="D" horiz-adv-x="1411" d="M176 0v1366h283q70 0 108.5 -1t73.5 -3q10 -2 22.5 -3t24.5 -3q281 -29 453 -216.5t172 -461.5q0 -223 -123 -394t-334 -239q-72 -25 -159 -35t-210 -10h-311zM371 166h100q123 0 192.5 9t129.5 30q6 2 12 5t12 5q133 59 210 183t77 286q0 164 -89 296t-235 183 q-51 18 -123.5 26.5t-183.5 8.5h-102v-1032z" />
<glyph unicode="E" horiz-adv-x="1079" d="M176 0v1366h760v-168h-565v-401h524v-168h-524v-463h581v-166h-776z" />
<glyph unicode="F" horiz-adv-x="987" d="M176 0v1366h725v-168h-530v-407h510v-166h-510v-625h-195z" />
<glyph unicode="G" horiz-adv-x="1406" d="M98 692q0 328 217 505t529 177q98 0 182 -13t166 -42q6 -4 12 -6t13 -4l-13 -189q-12 6 -23.5 12.5t-23.5 12.5q-72 33 -144.5 48t-156.5 15q-244 0 -396.5 -143t-152.5 -375q0 -240 153.5 -387t403.5 -147q20 0 37 1t35 3q25 2 51.5 8t61.5 16v396h-293v165h487v-692 q-45 -14 -89 -25.5t-85 -19.5q-53 -8 -106.5 -12t-110.5 -4q-346 0 -550 188.5t-204 511.5z" />
<glyph unicode="H" horiz-adv-x="1402" d="M176 0v1366h195v-573h661v573h195v-1366h-195v627h-661v-627h-195z" />
<glyph unicode="I" horiz-adv-x="573" d="M188 0v1366h195v-1366h-195z" />
<glyph unicode="J" horiz-adv-x="753" d="M39 6v170q18 -8 36.5 -13t35.5 -9q16 -2 34.5 -4.5t36.5 -2.5q129 0 164 84t39 187v34.5v34.5v879h195v-928v-106q-4 -170 -98.5 -259t-270.5 -89h-22.5t-18.5 2q-25 2 -52.5 7t-78.5 13z" />
<glyph unicode="K" horiz-adv-x="1290" d="M176 0v1366h195v-457q0 -55 -1 -83.5t-1 -51.5q0 -6 -1 -13t-1 -16q29 33 56.5 64t55.5 61l477 496h263l-646 -647l701 -719h-285l-495 530q-23 23 -54.5 61t-70.5 85v-36.5t2 -33.5v-32.5v-36.5v-537h-195z" />
<glyph unicode="L" horiz-adv-x="983" d="M176 0v1366h195v-1200h577v-166h-772z" />
<glyph unicode="M" horiz-adv-x="1853" d="M176 0v1366h320l270 -686q6 -16 12 -31.5t15 -32.5q37 -96 73.5 -194t61.5 -201q35 119 77 234.5t87 228.5l260 682h325v-1366h-192v780q0 61 1 124t3 124q0 61 1 123.5t1 124.5q-35 -117 -76 -231.5t-84 -229.5q-14 -37 -27.5 -75t-27.5 -76l-258 -664h-189l-258 664 q-12 31 -23 61.5t-24 58.5q-47 123 -93 245t-81 247v-5v-5t-1 -5.5t-1 -5.5q0 -12 1 -23t3 -24v-4v-6q2 -8 3 -17.5t1 -19.5q4 -43 7.5 -96t5.5 -107q2 -51 2 -101v-91v-766h-195z" />
<glyph unicode="N" horiz-adv-x="1443" d="M176 0v1366h266l465 -805q53 -94 104.5 -191.5t84.5 -199.5q-4 47 -8.5 93t-6.5 91q0 31 -1 59.5t-1 59.5q0 14 -1 28.5t-1 30.5q0 43 -1 87.5t-1 89.5v657h193v-1366h-252l-432 741q-6 12 -12.5 23.5t-14.5 21.5q-2 4 -4 7.5t-4 7.5q-55 98 -108.5 199.5t-86.5 209.5 q10 -129 13.5 -258t3.5 -258v-694h-195z" />
<glyph unicode="O" horiz-adv-x="1517" d="M98 682q0 305 171 507t487 202q317 0 490 -200t173 -509q0 -328 -177 -517.5t-480 -189.5q-315 0 -489.5 201t-174.5 506zM307 684q0 -248 126 -402.5t327 -154.5q199 0 324.5 153.5t125.5 395.5q0 254 -124.5 407.5t-331.5 153.5q-199 0 -323 -152.5t-124 -400.5z" />
<glyph unicode="P" horiz-adv-x="1087" d="M178 0v1366h271q141 0 214.5 -8t131.5 -31q117 -43 182 -141.5t65 -227.5t-64.5 -227t-178.5 -145q-51 -20 -128 -29.5t-190 -9.5h-108v-547h-195zM373 713h106h18.5h18.5q119 4 218.5 51t99.5 194q0 102 -69 165t-194 71q-25 2 -49 3t-49 1h-51.5h-48.5v-485z" />
<glyph unicode="Q" horiz-adv-x="1517" d="M98 682q0 324 179.5 516.5t480.5 192.5q322 0 491.5 -202t169.5 -513q0 -229 -93 -396t-269 -249l327 -295h-256l-260 241q-27 0 -45 -1t-32 -1h-13.5h-13.5q-303 0 -484.5 192.5t-181.5 514.5zM307 690q0 -250 126 -406.5t325 -156.5q201 0 326.5 153.5t125.5 397.5 q0 252 -124.5 405.5t-327.5 153.5q-201 0 -326 -151.5t-125 -395.5z" />
<glyph unicode="R" horiz-adv-x="1193" d="M176 0v1366h328q100 0 158.5 -5t107.5 -18q10 -4 20.5 -7t22.5 -7q102 -33 163.5 -121t61.5 -202q0 -135 -79.5 -216t-208.5 -104l14 -7l14 -7q33 -18 55.5 -40t43.5 -54q10 -16 20 -36t23 -44l229 -498h-223l-176 410q-12 31 -24.5 55t-25.5 45q-37 61 -82 79.5 t-135 18.5h-112v-608h-195zM371 776h121q23 0 47 1t47 3q94 8 173 52.5t79 156.5q0 119 -79 160t-175 47q-18 2 -36 2h-36h-141v-422z" />
<glyph unicode="S" horiz-adv-x="970" d="M88 1018q0 168 119 270.5t311 102.5q59 0 112.5 -6.5t106.5 -18.5l40 -12t40 -13l-24 -172q-68 27 -120 39.5t-102 16.5h-17h-17q-111 0 -178.5 -51.5t-67.5 -137.5t65.5 -138t155.5 -97q18 -10 37.5 -20.5t40.5 -20.5q113 -57 206 -139t93 -236q0 -186 -128 -298 t-339 -112q-84 0 -162 12.5t-149 39.5l20 184q66 -31 119 -48.5t104 -21.5q12 -2 23.5 -2h21.5q127 0 204 62.5t77 169.5q0 100 -72.5 155.5t-167.5 100.5q-14 6 -28.5 12t-28.5 14q-111 53 -203 131t-92 234z" />
<glyph unicode="T" horiz-adv-x="1083" d="M12 1198v168h1059v-168h-428v-1198h-194v1198h-437z" />
<glyph unicode="U" horiz-adv-x="1409" d="M176 621v743h195v-715q0 -143 10 -217t39 -129q39 -76 116.5 -120t176.5 -44q170 0 242.5 107.5t80.5 257.5q2 20 2 50v87v723h195v-768q0 -156 -17.5 -244t-62.5 -159q-68 -106 -181.5 -162t-264.5 -56q-168 0 -293 72t-185 205q-27 59 -40 151.5t-13 217.5z" />
<glyph unicode="V" horiz-adv-x="1296" d="M10 1366h215l334 -901q29 -76 52.5 -151.5t43.5 -153.5q6 27 12.5 53.5t14.5 50.5q12 49 28.5 97.5t37.5 103.5l333 901h205l-516 -1366h-238z" />
<glyph unicode="W" horiz-adv-x="1953" d="M8 1366h213l236 -799q29 -94 53.5 -187t42.5 -190q16 96 37.5 192.5t48.5 190.5l197 793h280l209 -799q10 -41 20.5 -81t18.5 -80q2 -6 4 -13.5t4 -13.5q10 -47 22.5 -94t24.5 -95q16 96 40 190.5t50 186.5l234 799h201l-410 -1366h-248l-237 897q-16 45 -27.5 92 t-22.5 94q-2 6 -3 13.5t-3 13.5q-4 25 -9 49.5t-11 48.5q-14 -78 -30.5 -155.5t-37.5 -155.5l-225 -897h-252z" />
<glyph unicode="X" horiz-adv-x="1300" d="M12 0l504 717l-465 649h236l362 -516l361 516h225l-459 -649l512 -717h-248l-405 584l-389 -584h-234z" />
<glyph unicode="Y" horiz-adv-x="1288" d="M10 1366h242l338 -512q16 -25 31.5 -49.5t27.5 -52.5q4 10 8.5 16t6.5 12q2 2 2 3v3q6 10 14 23.5t25 38.5l342 518h231l-533 -786v-580h-194v573z" />
<glyph unicode="Z" horiz-adv-x="1093" d="M61 0v166l553 803q10 14 20.5 29.5t20.5 31.5q33 45 66 89t70 85q-47 -2 -95.5 -4t-95.5 -2h-514v168h915v-180l-587 -840q-10 -14 -21.5 -29.5t-21.5 -31.5q-23 -31 -44.5 -60.5t-41.5 -62.5q12 0 22 1t19 1q23 2 47 2h63h578v-166h-953z" />
<glyph unicode="[" horiz-adv-x="727" d="M195 -418v1893h380v-134h-204v-1628h204v-131h-380z" />
<glyph unicode="\" horiz-adv-x="890" d="M100 1475h158l692 -1893h-164z" />
<glyph unicode="]" horiz-adv-x="727" d="M152 -285h204v1628h-204v132h380v-1893h-380v133z" />
<glyph unicode="^" horiz-adv-x="1024" d="M39 729l352 641h242l352 -641h-197l-276 496l-276 -496h-197z" />
<glyph unicode="_" horiz-adv-x="1024" d="M0 -121h1024v-168h-1024v168z" />
<glyph unicode="`" horiz-adv-x="1024" d="M260 1483h205l162 -281h-131z" />
<glyph unicode="a" horiz-adv-x="1083" d="M88 287q0 158 136 242.5t388 84.5h11.5h9.5q25 0 52.5 -1t66.5 -3q-2 127 -62.5 188.5t-187.5 61.5q-47 0 -88 -7t-82 -24q-31 -10 -61.5 -26.5t-63.5 -38.5l-10 162q25 14 48 25.5t48 21.5q57 23 115.5 34t123.5 11q139 0 234.5 -53.5t134.5 -151.5q16 -45 23.5 -109.5 t7.5 -168.5v-195v-85t2 -85q0 -43 2 -85t6 -85h-170q0 16 -1 26.5t-1 20.5v15.5v15.5v17v16q0 14 1 28.5t1 32.5q-57 -96 -138 -140t-198 -44q-158 0 -253 81t-95 218zM285 289q0 -70 53 -113t139 -43q162 0 220.5 101.5t58.5 238.5q-14 2 -26.5 3t-22.5 1q-12 2 -23.5 2 h-28.5q-184 0 -277 -47t-93 -143z" />
<glyph unicode="b" horiz-adv-x="1181" d="M145 0v1475h187v-531q0 -29 -1 -58.5t-5 -58.5q37 86 131 138.5t213 52.5q197 0 314.5 -138.5t117.5 -369.5q0 -240 -119 -381t-315 -141q-117 0 -207 47t-137 135v-170h-179zM336 500q0 -152 83 -254.5t206 -102.5t201.5 101.5t78.5 257.5q0 160 -76.5 259t-197.5 99 q-127 0 -211 -102.5t-84 -257.5z" />
<glyph unicode="c" horiz-adv-x="874" d="M80 500q0 223 142.5 368.5t359.5 145.5h19t20 -2q49 -2 97 -12.5t91 -26.5l-12 -164q-41 25 -85 35t-98 10q-150 0 -244 -97.5t-94 -248.5q0 -162 92.5 -262.5t241.5 -100.5q31 0 57.5 4.5t53.5 12.5q23 6 47.5 18.5t50.5 28.5l15 -170q-55 -27 -113.5 -38t-132.5 -11 q-229 0 -368.5 140t-139.5 370z" />
<glyph unicode="d" horiz-adv-x="1187" d="M80 496q0 233 121 377.5t317 144.5q106 0 190.5 -44t141.5 -130q0 16 -1 33.5t-1 35.5q-2 16 -3 34t-1 34v494h186v-1008q0 -117 4 -233.5t10 -233.5h-180v168q-59 -92 -144 -136t-202 -44q-201 0 -319.5 137t-118.5 371zM276 498q0 -156 78 -255.5t203 -99.5 q127 0 209 101.5t82 255.5t-82 257t-203 103q-125 0 -206 -101.5t-81 -260.5z" />
<glyph unicode="e" horiz-adv-x="1069" d="M80 512q0 233 130 374.5t341 141.5q256 0 346 -178t90 -397h-721q18 -150 107.5 -236t226.5 -86q55 0 106.5 10.5t102.5 30.5q27 10 52.5 23.5t51.5 29.5v-178q-45 -20 -87 -33.5t-83 -21.5q-37 -8 -73.5 -12.5t-77.5 -4.5q-236 0 -374 144.5t-138 392.5zM268 598h533 q-12 113 -70.5 198t-185.5 85q-109 0 -183.5 -76t-93.5 -207z" />
<glyph unicode="f" horiz-adv-x="722" d="M6 852v145h236v24.5v22.5q4 166 62 302.5t261 136.5q16 0 29.5 -1t28.5 -1q16 -2 34.5 -5t42.5 -10v-155q-23 6 -39 8l-32 4h-12.5h-12.5q-123 0 -149.5 -82t-26.5 -180v-7v-5v-52h272v-145h-272v-852h-186v852h-236z" />
<glyph unicode="g" horiz-adv-x="1159" d="M80 496q0 231 122 376.5t314 145.5q115 0 207 -51.5t131 -139.5v8.5t2 8.5v4v4l-2 27v125h174v-830q0 -272 -84 -438t-403 -166q-51 0 -97.5 4t-93.5 12q-45 8 -92 20.5t-98 31.5l18 178q61 -27 116.5 -46.5t108.5 -29.5q33 -6 66 -9t68 -3q102 0 174.5 38.5t105.5 112.5 q20 41 26.5 85t8.5 91v21.5v23.5v33t2 31q-55 -82 -140 -123t-194 -41q-199 0 -319.5 136t-120.5 360zM276 498q0 -150 77 -246t200 -96q129 0 211 98t82 252q0 152 -83 253t-204 101q-125 0 -204 -102.5t-79 -259.5z" />
<glyph unicode="h" horiz-adv-x="1161" d="M143 0v1475h187v-480v-37.5t-2 -39.5q0 -20 -1 -40t-3 -38q51 90 136 134t197 44q231 0 303 -149.5t72 -344.5v-524h-186v434q0 115 -3 168t-14 92q-20 82 -74.5 124t-136.5 42q-92 0 -164.5 -55t-101.5 -150q-14 -41 -18 -94t-4 -164v-397h-187z" />
<glyph unicode="i" horiz-adv-x="468" d="M129 1241v205h203v-205h-203zM141 0v1001h187v-1001h-187z" />
<glyph unicode="j" horiz-adv-x="507" d="M-37 -262q4 2 8 2t6 -2q12 0 21.5 -1t13.5 -1q109 0 135.5 70.5t26.5 158.5v58v981h186v-981v-35t-2 -35q-4 -141 -55 -259t-231 -118h-5.5h-5.5q-18 0 -39.5 2t-56.5 8zM166 1241v205h203v-205h-203z" />
<glyph unicode="k" horiz-adv-x="1060" d="M143 0v1475h187v-707q-2 -45 -4 -91t-2 -93q14 16 27.5 31.5t27.5 29.5q8 8 15 15.5t14 15.5l325 325h252l-467 -442l529 -559h-263l-338 369q-16 16 -31.5 35.5t-29.5 37.5t-29.5 38t-31.5 36q4 -27 4 -53.5v-54.5q2 -10 2 -21.5v-21.5v-365h-187z" />
<glyph unicode="l" horiz-adv-x="468" d="M141 0v1475h187v-1475h-187z" />
<glyph unicode="m" horiz-adv-x="1728" d="M141 1001h172l11 -161q41 84 124.5 131t190.5 47q113 0 187.5 -51.5t107.5 -149.5q49 98 133 149.5t197 51.5q213 0 272 -140.5t63 -308.5v-21v-22v-526h-186v489q0 100 -3 150.5t-13 83.5q-18 66 -62.5 101.5t-109.5 35.5q-82 0 -146.5 -56t-89.5 -151q-2 -6 -3 -11 t-3 -9q-8 -35 -10 -77t-2 -132v-424h-187v514q0 92 -2 136t-12 75q-20 66 -63 100.5t-103 34.5q-115 0 -189.5 -97t-74.5 -249v-72v-442h-186v563v109.5t-2 109.5t-4.5 109.5t-6.5 109.5z" />
<glyph unicode="n" horiz-adv-x="1169" d="M141 1001h174l9 -159q57 88 144 132t200 44q254 0 312 -166t60 -365v-11v-11v-465h-184v451q0 106 -3 151t-9 80q-2 4 -3 7t-1 7q-20 80 -75.5 122t-137.5 42q-92 0 -164 -55t-101 -150l-4 -16l-4 -16q-10 -39 -12 -90.5t-2 -165.5v-367h-186v494q0 31 -1 60.5t-1 57.5 q0 31 -1 60.5t-1 58.5q-2 68 -3.5 135.5t-5.5 134.5z" />
<glyph unicode="o" horiz-adv-x="1185" d="M80 498q0 231 144.5 380.5t367.5 149.5q225 0 368.5 -148.5t145.5 -381.5q0 -229 -144.5 -376t-371.5 -147q-221 0 -365.5 147.5t-144.5 375.5zM276 500q0 -168 89.5 -273.5t228.5 -105.5q137 0 226 105.5t89 267.5q-2 170 -89 278.5t-226 108.5q-137 0 -227.5 -107.5 t-90.5 -273.5z" />
<glyph unicode="p" horiz-adv-x="1189" d="M143 1001h176l11 -176q59 94 147 143.5t201 49.5q195 0 313.5 -138.5t118.5 -365.5q0 -238 -120 -382t-316 -144q-121 0 -206 47t-138 147q4 -25 6 -48t4 -48q0 -25 1 -48.5t1 -45.5v-410h-186v981q0 55 -1 109.5t-1 109.5q-2 55 -4.5 109.5t-6.5 109.5zM342 500 q0 -150 84 -252.5t209 -102.5q121 0 199.5 101.5t78.5 255.5q0 162 -74.5 260t-199.5 98q-127 0 -212 -102.5t-85 -257.5z" />
<glyph unicode="q" horiz-adv-x="1183" d="M80 496q0 238 122 380t320 142q121 0 210 -53.5t134 -153.5q-4 14 -5 25.5t-1 21.5v5v7v29.5v30.5q0 14 -1 29.5t-3 29.5v12h180v-1419h-184v434q0 51 2 84t6 62q0 2 1 5t1 7q-57 -94 -143 -140t-203 -46q-199 0 -317.5 137t-118.5 371zM276 500q0 -156 79 -255.5 t204 -99.5q127 0 208 100.5t81 254.5q0 156 -82 258t-203 102q-125 0 -206 -101.5t-81 -258.5z" />
<glyph unicode="r" horiz-adv-x="737" d="M143 1001h172l9 -178q45 94 118.5 142.5t167.5 48.5h21.5t19.5 -2q12 0 26.5 -3t33.5 -8v-170q-16 6 -27.5 9.5t-24.5 5.5q-8 0 -17 1t-19 1q-133 0 -199 -96.5t-80 -210.5q-2 -18 -3 -38t-1 -38v-72v-393h-184v610q0 49 -1 98.5t-3 98.5q-2 47 -4.5 96t-4.5 98z" />
<glyph unicode="s" horiz-adv-x="774" d="M72 727q0 133 95 212t253 79q25 0 47 -1t45 -5q33 -4 67.5 -13.5t73.5 -21.5l-14 -156q-23 10 -43.5 18.5t-40.5 14.5q-29 8 -57.5 12t-61.5 4q-76 0 -122 -33.5t-46 -91.5q0 -51 43 -84.5t103 -64.5q18 -8 36.5 -17.5t38.5 -19.5q82 -41 151 -101.5t69 -170.5 q0 -137 -100.5 -220t-264.5 -83q-47 0 -87 5t-79 15q-25 6 -47 14.5t-47 20.5v166q57 -29 103 -44.5t92 -19.5q10 -2 20 -2h20q84 0 138.5 37t54.5 94q0 47 -40 80t-97 64q-20 10 -41 20t-43 23q-82 43 -150.5 103.5t-68.5 166.5z" />
<glyph unicode="t" horiz-adv-x="751" d="M-6 852v145h231v230l185 63v-293h266v-145h-266v-393q0 -78 3 -122t9 -75q10 -55 50 -86t103 -31q12 0 22.5 1t23.5 4q18 2 36.5 9t38.5 17v-160q-31 -10 -59.5 -15t-56.5 -9q-12 0 -26.5 -1t-29.5 -1q-209 0 -254 121.5t-45 291.5v449h-231z" />
<glyph unicode="u" horiz-adv-x="1159" d="M129 469v530h186v-464q0 -111 5.5 -169.5t19.5 -97.5q27 -66 77 -100.5t120 -34.5q127 0 204.5 99.5t77.5 261.5v67v438h185v-630q0 -74 3 -148t7 -147q2 -18 3 -37t1 -37h-172l-8 156q-59 -84 -145.5 -126t-192.5 -42q-227 0 -299 144t-72 337z" />
<glyph unicode="v" horiz-adv-x="966" d="M12 1001h201l205 -577q6 -16 12 -33.5t12 -34.5q14 -45 28.5 -90t21.5 -92q4 29 10 54.5t14 52.5q4 14 9 27.5t10 25.5l235 667h184l-360 -1001h-213z" />
<glyph unicode="w" horiz-adv-x="1622" d="M12 1001h203l164 -538q25 -72 44 -145.5t32 -149.5q6 18 9 35.5t7 36.5l1 2t1 4q6 35 14.5 67.5t24.5 63.5l197 624h217l182 -550q25 -70 43 -140.5t35 -142.5q8 66 25.5 131.5t37.5 128.5q2 8 4 15.5t4 13.5l168 544h185l-320 -1001h-215l-172 514q-18 53 -32.5 99 t-26.5 89q-8 35 -16.5 69t-16.5 71q-18 -82 -40.5 -163t-49.5 -161l-166 -518h-213z" />
<glyph unicode="x" horiz-adv-x="972" d="M12 0l359 526l-332 475h227l164 -247q20 -31 32.5 -53.5t20.5 -43.5q4 -8 7.5 -14t5.5 -14q8 27 22 51.5t29 48.5q4 6 8 13.5t8 13.5l156 245h205l-320 -475l357 -526h-230l-186 289q-18 29 -30.5 49t-20.5 39q-4 8 -7.5 16t-7.5 17q-6 -20 -16 -40t-23 -38 q-2 -6 -5 -10.5t-5 -10.5q-4 -4 -7 -9t-5 -9l-189 -293h-217z" />
<glyph unicode="y" horiz-adv-x="964" d="M12 1001h201l223 -632q25 -72 37 -119t16 -88q4 29 10.5 54.5t14.5 51.5q4 14 9 27.5t9 26.5l236 679h184l-356 -991q-4 -10 -9 -23.5t-9 -25.5q-51 -143 -131 -263t-259 -120h-19t-17 2q-16 2 -35 5t-43 9l10 148q16 -4 27.5 -8t23.5 -6q8 0 17.5 -1t19.5 -1 q88 0 138 62t77 138q2 8 5 17.5t5 17.5z" />
<glyph unicode="z" horiz-adv-x="972" d="M74 0v152l473 581q27 33 55.5 64.5t56.5 60.5q-35 -2 -70.5 -3t-70.5 -1h-422v147h768v-157l-483 -588q-12 -14 -25.5 -29.5t-25.5 -29.5q-14 -14 -27.5 -29.5t-26.5 -30.5q8 2 14.5 3t12.5 3q8 0 17.5 1t25.5 1h88h453v-145h-813z" />
<glyph unicode="{" horiz-adv-x="1009" d="M281 463v131q61 16 87.5 61t26.5 127v408q0 197 104.5 241t266.5 44v-134q-121 0 -158 -30.5t-37 -136.5v-402q0 -100 -25.5 -151.5t-92.5 -92.5q66 -39 92 -93t26 -154v-396q0 -117 47.5 -142.5t147.5 -25.5v-135q-166 2 -268.5 52.5t-102.5 248.5v387q0 90 -25.5 134.5 t-88.5 58.5z" />
<glyph unicode="|" horiz-adv-x="1024" d="M420 -342v1706h184v-1706h-184z" />
<glyph unicode="}" horiz-adv-x="1009" d="M244 -285q121 2 157.5 33t36.5 137v400q0 100 24.5 152t94.5 91q-68 41 -93.5 94.5t-25.5 153.5v395q0 104 -38 137t-140 33h-16v134q170 0 270 -43t100 -256v-390q0 -88 26 -132t89 -60v-131q-61 -16 -88 -60.5t-27 -128.5v-407q0 -190 -103 -236.5t-267 -46.5v131z" />
<glyph unicode="~" horiz-adv-x="1024" d="M18 600q59 133 127 191.5t162 58.5q55 0 107.5 -19.5t103.5 -42.5l8 -4t9 -4q47 -23 94 -39t96 -16q35 0 62.5 10t52.5 37q14 14 28.5 34.5t30.5 47.5l109 -63q-45 -94 -118 -169t-190 -75q-55 0 -104 19.5t-98 43.5q-49 23 -99.5 42.5t-105.5 19.5q-35 0 -63.5 -14.5 t-55.5 -47.5q-12 -16 -24.5 -35.5t-24.5 -44.5z" />
<glyph unicode="&#xa1;" horiz-adv-x="800" d="M242 -365l32 986h168l25 -986h-225zM252 791v210h211v-210h-211z" />
<glyph unicode="&#xa2;" d="M186 694q0 209 123 348.5t330 161.5v158h104v-158q16 -2 28.5 -3t25.5 -3q23 -4 39 -7t32 -7q12 -4 23.5 -8.5t26.5 -8.5l-13 -163q-12 6 -24.5 11l-22.5 9q-27 10 -53.5 15t-61.5 8v-705q33 2 57.5 7t47.5 13q18 8 36.5 17.5t41.5 21.5l16 -168q-23 -10 -42 -18t-38 -12 q-27 -8 -55.5 -13.5t-63.5 -7.5v-162h-104v162q-211 23 -332 160t-121 352zM385 700q0 -135 67.5 -227t186.5 -123v688q-121 -33 -187.5 -121t-66.5 -217z" />
<glyph unicode="&#xa3;" d="M125 0v162h182v504h-164v106h162v47q0 147 15.5 226t60.5 145q2 4 4 7t4 7q59 84 157.5 128t219.5 44q37 0 71.5 -3t69.5 -9q25 -6 49.5 -12t49.5 -15l-17 -170q-47 18 -81 29.5t-66 15.5q-12 2 -26.5 3.5t-29.5 1.5q-125 0 -198.5 -75t-85.5 -196q-2 -20 -3 -42.5 t-3 -43.5v-44v-44h317v-106h-313v-504h483v-162h-858z" />
<glyph unicode="&#xa4;" d="M63 993l89 88l161 -161q27 18 52.5 32.5t50.5 22.5q31 14 63.5 19t69.5 5q39 0 73.5 -6t67.5 -20q23 -8 45.5 -21.5t46.5 -29.5l162 157l86 -86l-160 -159q20 -29 35 -55.5t25 -53.5q10 -29 15 -59.5t5 -63.5q0 -35 -5 -66.5t-17 -62.5q-10 -25 -23.5 -49.5t-32.5 -50.5 l162 -160l-88 -88l-160 160q-57 -39 -114.5 -59.5t-120.5 -20.5q-31 0 -59.5 5t-57.5 13q-31 10 -59.5 25.5t-59.5 36.5l-161 -160l-86 88l157 160q-39 55 -58.5 111.5t-19.5 119.5q0 37 6.5 70t18.5 63q10 23 23.5 46.5t31.5 47.5zM293 602q0 -106 74.5 -181t181.5 -75 q106 0 181 75t75 181t-75 181t-181 75t-181 -74.5t-75 -181.5z" />
<glyph unicode="&#xa5;" d="M8 1366h242l262 -512q10 -23 17.5 -38t13.5 -30q2 -4 3 -7t1 -5q2 -6 4 -11t4 -11q2 6 4 13t6 15q6 18 13.5 36t15.5 32l262 518h234l-267 -479h203v-107h-264l-92 -168h336v-106h-357v-506h-192v506h-365v106h342l-94 168h-268v107h207z" />
<glyph unicode="&#xa6;" horiz-adv-x="1024" d="M420 313h184v-655h-184v655zM420 674v690h184v-690h-184z" />
<glyph unicode="&#xa7;" d="M109 559q0 104 52 181t150 112q-86 47 -136 113.5t-50 169.5q0 158 130 257t339 99q27 0 52.5 -1t51.5 -3q53 -6 104.5 -14.5t98.5 -22.5l-18 -172q-61 23 -119.5 37t-116.5 18q-14 0 -28.5 1t-28.5 1q-131 0 -209 -52t-78 -142q0 -92 81 -143.5t189 -96.5q18 -6 37 -13 t37 -16q129 -53 236.5 -128.5t107.5 -227.5q0 -98 -49 -170t-156 -125q88 -43 134.5 -108.5t46.5 -163.5q0 -174 -141.5 -278.5t-376.5 -104.5q-82 0 -156 10t-146 33q-8 2 -16 5t-16 5l16 178q61 -25 119.5 -41t116.5 -22q23 -4 46 -5t46 -1q147 0 230 55t83 151 q0 98 -82 150.5t-190 95.5q-14 6 -29.5 12.5t-30.5 12.5q-125 51 -228 126t-103 228zM260 598q0 -63 35 -108.5t117 -88.5q4 -2 9 -5t11 -5q59 -29 118.5 -52.5t121.5 -45.5l22.5 -9t24.5 -10q16 12 29.5 25.5t23.5 26.5q31 35 44 71.5t13 79.5q0 88 -59 137.5t-131 81.5 q-16 6 -31.5 13.5t-29.5 13.5l-199 88q-29 -25 -50.5 -49.5t-35.5 -46.5q-16 -29 -24.5 -57.5t-8.5 -59.5z" />
<glyph unicode="&#xa8;" horiz-adv-x="1024" d="M236 1243v199h178v-199h-178zM608 1243v199h178v-199h-178z" />
<glyph unicode="&#xa9;" horiz-adv-x="1607" d="M98 682q0 293 208 501t501 208q291 0 496.5 -208t205.5 -501t-205.5 -500t-498.5 -207q-291 0 -499 208t-208 499zM209 682q0 -250 175 -429t421 -179t420 178t174 430t-173 430t-419 178q-248 0 -423 -178t-175 -430zM416 686q0 174 123 282.5t315 108.5q49 0 89 -6 t77 -18q8 -2 15 -5.5t16 -7.5l-13 -120q-29 14 -52 24t-46 17q-18 4 -37.5 6t-42.5 2q-133 0 -218 -78t-85 -203t88 -206t221 -81h15.5t15.5 2q35 2 72 10.5t80 24.5l8 -125q-20 -6 -40 -11t-38 -7q-25 -4 -51.5 -6t-59.5 -2q-207 0 -329.5 107.5t-122.5 291.5z" />
<glyph unicode="&#xaa;" horiz-adv-x="727" d="M86 952q0 96 87 148.5t249 52.5h20.5h20.5q10 -2 20.5 -2h20.5q-2 66 -39 98.5t-111 32.5q-25 0 -45 -3t-41 -9q-25 -6 -50 -19.5t-56 -31.5l-6 114q16 10 31.5 17.5t31.5 13.5q37 14 75 20.5t79 6.5q152 0 207 -73t55 -216v-20.5v-18.5q-2 -10 -2 -20.5v-20.5v-61.5 t2 -61.5q0 -33 2 -63.5t4 -61.5h-123q0 10 -1 20.5t-1 20.5v20.5v20.5q-39 -47 -87 -68.5t-116 -21.5q-102 0 -164.5 51t-62.5 135zM106 573v97h535v-97h-535zM225 952q0 -37 32 -60.5t83 -23.5q84 0 125 54.5t41 132.5q-6 0 -12.5 1t-12.5 1h-12h-16q-113 0 -170.5 -25.5 t-57.5 -79.5z" />
<glyph unicode="&#xab;" horiz-adv-x="1095" d="M111 506l274 397h178l-254 -397l258 -406h-174zM508 506l274 397h179l-254 -397l258 -406h-174z" />
<glyph unicode="&#xac;" horiz-adv-x="1024" d="M68 375v172h886v-547h-184v375h-702z" />
<glyph unicode="&#xad;" horiz-adv-x="1024" />
<glyph unicode="&#xae;" horiz-adv-x="1607" d="M98 682q0 293 208 501t501 208q291 0 496.5 -208t205.5 -501t-205.5 -500t-498.5 -207q-291 0 -499 208t-208 499zM209 682q0 -250 175 -429t421 -179t420 178t174 430t-173 430t-419 178q-248 0 -423 -178t-175 -430zM543 291v782h205q20 0 40.5 -1t42.5 -3 q92 -6 169 -48t77 -159q0 -70 -40 -117t-115 -65q2 0 3 -1l3 -3q18 -10 29.5 -22.5t23.5 -28.5q4 -8 10 -19.5t13 -23.5l145 -291h-154l-106 235q-8 16 -15.5 29.5t-13.5 26.5q-20 33 -47 42t-78 9h-59v-342h-133zM676 743h65q106 0 152.5 26t46.5 85t-44 84t-144 25h-76 v-220z" />
<glyph unicode="&#xaf;" horiz-adv-x="569" />
<glyph unicode="&#xb0;" horiz-adv-x="768" d="M86 1202q0 121 87 206t210 85q125 0 212 -85t87 -206t-87 -207t-212 -86q-123 0 -210 86t-87 207zM203 1202q0 -76 52 -128t128 -52t129 52t53 126q0 76 -53 128t-129 52t-128 -52t-52 -126z" />
<glyph unicode="&#xb1;" d="M78 117v149h942v-149h-942zM78 745v150h395v383h152v-383h395v-150h-395v-383h-152v383h-395z" />
<glyph unicode="&#xb2;" horiz-adv-x="727" d="M96 543v145q29 25 69 59.5t83 77.5q35 33 67.5 68t59.5 72q33 45 54.5 89t21.5 83q0 47 -37 76.5t-95 29.5q-8 0 -17 -1t-17 -1q-35 -4 -72 -19.5t-84 -43.5l-16 143q47 20 81.5 31.5t65.5 15.5q18 4 37.5 5t40.5 1q121 0 194.5 -65.5t73.5 -167.5v-8.5v-6.5 q-6 -96 -71.5 -187t-143.5 -167q-29 -27 -57.5 -52.5t-52.5 -47.5h22h320v-129h-527z" />
<glyph unicode="&#xb3;" horiz-adv-x="727" d="M94 569l8 146q53 -25 92 -36t76 -15q8 -2 17.5 -2h17.5q66 0 109 33.5t43 84.5q0 63 -51.5 94t-153.5 31h-3h-1h-21.5t-29.5 -2v133h45q102 0 156.5 30t54.5 85q0 45 -38 72.5t-98 27.5q-12 0 -24 -1t-25 -3q-33 -4 -65.5 -15t-75.5 -32l-10 135q29 10 54.5 18.5 t49.5 12.5q25 4 50.5 6t54.5 2q131 0 204.5 -59.5t73.5 -163.5q0 -59 -31.5 -105.5t-91.5 -74.5q70 -33 100.5 -81t30.5 -120q0 -106 -81.5 -172t-219.5 -66q-25 0 -47 2.5t-45 4.5q-31 6 -61.5 13t-63.5 17z" />
<glyph unicode="&#xb4;" horiz-adv-x="1024" d="M397 1202l162 281h205l-236 -281h-131z" />
<glyph unicode="&#xb5;" horiz-adv-x="1097" d="M121 -346v1329h184v-532q0 -109 16.5 -165.5t57.5 -99.5q35 -33 79 -51t89 -18q123 0 177 86t67 190q2 18 3 37t1 37v516h184v-983h-184v158q-45 -94 -104.5 -136t-147.5 -42q-78 0 -134.5 32.5t-103.5 106.5v-465h-184z" />
<glyph unicode="&#xb6;" d="M45 981q0 207 125 296t313 89h543v-143h-104v-1641h-158v1641h-180v-1641h-160v1026q-6 -2 -11 -2h-10h-3h-3q-156 0 -254 104.5t-98 270.5z" />
<glyph unicode="&#xb7;" horiz-adv-x="569" />
<glyph unicode="&#xb8;" horiz-adv-x="1024" d="M436 -383l35 72q16 -4 30.5 -9.5t28.5 -9.5l36 -4t38 -2q49 0 78 20.5t29 55.5q0 33 -28 55.5t-69 22.5q-14 0 -30.5 -3t-44.5 -12l-33 31l121 166h86l-86 -117q27 6 42 8.5t27 2.5h1h3q72 0 117 -40t45 -102q0 -78 -65.5 -127t-169.5 -49q-35 0 -67 4t-62 14 q-14 4 -29.5 9.5t-32.5 13.5z" />
<glyph unicode="&#xb9;" horiz-adv-x="727" d="M147 1188l207 176h125v-821h-145v495v140l-103 -93z" />
<glyph unicode="&#xba;" horiz-adv-x="833" d="M86 1071q0 139 93 229.5t237 90.5q145 0 238.5 -89.5t93.5 -230.5q0 -139 -93.5 -228t-238.5 -89q-143 0 -236.5 90t-93.5 227zM106 573v97h621v-97h-621zM225 1071q0 -94 54.5 -154.5t138.5 -60.5t137 59.5t53 153.5q0 96 -53 157.5t-137 61.5t-138.5 -60.5 t-54.5 -156.5z" />
<glyph unicode="&#xbb;" horiz-adv-x="1095" d="M131 100l258 406l-254 397h178l275 -397l-283 -406h-174zM528 100l260 406l-253 397h176l274 -397l-280 -406h-177z" />
<glyph unicode="&#xbc;" horiz-adv-x="1765" d="M147 1190l207 176h125v-823h-145v495v140l-103 -91zM449 -66l745 1498h121l-748 -1498h-118zM1098 172v115l319 534h187v-520h102v-129h-102v-172h-146v172h-360zM1260 301h198l4 293q2 10 2 20.5v20.5q2 6 2 13v14q-16 -29 -41.5 -73t-54.5 -91q-2 -2 -3 -4l-1 -2 q-35 -57 -63.5 -108.5t-40.5 -80.5z" />
<glyph unicode="&#xbd;" horiz-adv-x="1765" d="M147 1190l207 176h125v-823h-145v495v140l-103 -91zM449 -66l745 1498h121l-748 -1498h-118zM1133 0v145q184 160 270 267.5t86 179.5q0 47 -37 77.5t-96 30.5q-8 0 -17.5 -1t-17.5 -1q-35 -4 -72 -19t-84 -44l-16 143q47 18 81 30.5t66 16.5q18 4 38 5t40 1 q121 0 196 -65.5t75 -167.5q0 -100 -68 -196.5t-150 -174.5q-29 -27 -57.5 -51t-52.5 -47h24h320v-129h-528z" />
<glyph unicode="&#xbe;" horiz-adv-x="1765" d="M96 569l8 146q53 -25 92.5 -36t75.5 -15q8 -2 17.5 -2h17.5q66 0 109 33.5t43 84.5q0 63 -51.5 94t-153.5 31h-3h-1h-21.5t-29.5 -2v133h45q102 0 156.5 30t54.5 85q0 45 -38 72.5t-98 27.5q-12 0 -24 -1t-25 -3q-33 -4 -65.5 -15t-75.5 -32l-10 135q29 10 54.5 18.5 t49.5 12.5q25 4 50.5 6t54.5 2q131 0 204.5 -59.5t73.5 -163.5q0 -59 -31.5 -105.5t-91.5 -74.5q70 -33 100.5 -81t30.5 -120q0 -106 -81.5 -172t-219.5 -66q-25 0 -47 2.5t-45 4.5q-31 6 -61.5 13t-63.5 17zM451 -66l745 1498h121l-748 -1498h-118zM1100 172v115l319 534 h187v-520h102v-129h-102v-172h-146v172h-360zM1262 301h198l4 293v16t2 19v16v17q-16 -33 -41.5 -76t-52.5 -88q-33 -55 -63.5 -107.5t-44.5 -87.5z" />
<glyph unicode="&#xbf;" horiz-adv-x="1042" d="M92 -33q0 25 2 45.5t8 42.5q16 59 58.5 124t124.5 159q39 45 61.5 76.5t36.5 60.5q12 29 16 61.5t4 81.5h179q0 -84 -10.5 -139t-39.5 -106q-12 -18 -27.5 -40t-35.5 -44q-10 -10 -20.5 -21.5t-20.5 -23.5q-49 -55 -90 -118t-41 -136q0 -94 64.5 -147.5t177.5 -53.5 q72 0 143.5 18.5t146.5 55.5l15 -191q-53 -16 -100.5 -28.5t-94.5 -18.5q-35 -6 -68.5 -8t-70.5 -2q-184 0 -301 98.5t-117 253.5zM387 786v213h209v-213h-209z" />
<glyph unicode="&#xc0;" horiz-adv-x="1398" d="M10 0l582 1366h205l592 -1366h-220l-143 346h-664l-141 -346h-211zM424 512h534l-157 381q-33 74 -62.5 150.5t-48.5 154.5q-2 -8 -4 -15t-4 -16q-2 -4 -4 -10t-2 -12q-14 -39 -34.5 -91.5t-66.5 -164.5zM449 1792h204l162 -281h-131z" />
<glyph unicode="&#xc1;" horiz-adv-x="1398" d="M10 0l582 1366h205l592 -1366h-220l-143 346h-664l-141 -346h-211zM424 512h534l-157 381q-33 74 -62.5 150.5t-48.5 154.5q-2 -8 -4 -15t-4 -16q-2 -4 -4 -10t-2 -12q-14 -39 -34.5 -91.5t-66.5 -164.5zM586 1511l162 281h204l-235 -281h-131z" />
<glyph unicode="&#xc2;" horiz-adv-x="1398" d="M10 0l582 1366h205l592 -1366h-220l-143 346h-664l-141 -346h-211zM401 1511l205 281h182l207 -281h-170l-133 189l-139 -189h-152zM424 512h534l-157 381q-33 74 -62.5 150.5t-48.5 154.5q-2 -8 -4 -15t-4 -16q-2 -4 -4 -10t-2 -12q-14 -39 -34.5 -91.5t-66.5 -164.5z " />
<glyph unicode="&#xc3;" horiz-adv-x="1398" d="M10 0l582 1366h205l592 -1366h-220l-143 346h-664l-141 -346h-211zM365 1536q16 104 68 158.5t138 54.5q39 0 73 -12.5t67 -24.5q12 -6 22 -10t21 -8q23 -10 44 -15.5t44 -5.5q41 0 62.5 20.5t35.5 69.5h96q-14 -100 -66 -157.5t-128 -57.5q-37 0 -74 12.5t-72 26.5 q-23 8 -43 16.5t-41 14.5q-14 4 -28.5 6t-28.5 2q-37 0 -58.5 -21.5t-37.5 -68.5h-94zM424 512h534l-157 381q-33 74 -62.5 150.5t-48.5 154.5q-2 -8 -4 -15t-4 -16q-2 -4 -4 -10t-2 -12q-14 -39 -34.5 -91.5t-66.5 -164.5z" />
<glyph unicode="&#xc4;" horiz-adv-x="1398" d="M10 0l582 1366h205l592 -1366h-220l-143 346h-664l-141 -346h-211zM424 512h534l-157 381q-33 74 -62.5 150.5t-48.5 154.5q-2 -8 -4 -15t-4 -16q-2 -4 -4 -10t-2 -12q-14 -39 -34.5 -91.5t-66.5 -164.5zM426 1550v199h178v-199h-178zM799 1550v199h178v-199h-178z" />
<glyph unicode="&#xc5;" horiz-adv-x="1398" d="M10 0l582 1366h205l592 -1366h-220l-143 346h-664l-141 -346h-211zM424 512h534l-157 381q-33 74 -62.5 150.5t-48.5 154.5q-2 -8 -4 -15t-4 -16q-2 -4 -4 -10t-2 -12q-14 -39 -34.5 -91.5t-66.5 -164.5zM500 1649q0 82 58 140t140 58t140.5 -58t58.5 -140t-58.5 -140.5 t-140.5 -58.5t-140 58.5t-58 140.5zM600 1649q0 -39 29.5 -69t68.5 -30q41 0 70 30t29 69q0 41 -29 69.5t-70 28.5q-39 0 -68.5 -28.5t-29.5 -69.5z" />
<glyph unicode="&#xc6;" horiz-adv-x="1847" d="M12 0l824 1366h860v-168h-549l31 -410h485v-167h-473l31 -455h499v-166h-680l-26 350h-576l-207 -350h-219zM532 516h469l-45 707z" />
<glyph unicode="&#xc7;" horiz-adv-x="1196" d="M102 690q0 305 200 495.5t521 190.5q82 0 147.5 -11t129.5 -36q8 -4 15 -7t15 -7l-16 -185q-35 18 -67.5 33t-63.5 23q-35 10 -72 15t-80 5q-231 0 -376.5 -142t-145.5 -372q0 -229 151.5 -378.5t381.5 -149.5q16 0 32.5 1t32.5 3q51 4 104.5 18.5t118.5 38.5l15 -188 q-31 -10 -59.5 -18.5t-57.5 -14.5q-41 -6 -84 -9t-90 -3h-25.5t-40.5 2l-79 -111q25 8 39 10.5t26 2.5h6h4q72 0 116 -40t44 -102q0 -78 -65.5 -127t-171.5 -49q-20 0 -40 2l-40 4q-25 6 -51.5 13.5t-55.5 19.5l35 72q23 -8 43 -14.5t41 -8.5q12 -2 24.5 -3t24.5 -1 q49 0 78 21.5t29 56.5q0 33 -27 55.5t-68 22.5h-3h-1q-14 0 -30.5 -3t-44.5 -12l-31 33l119 162q-104 14 -177 39.5t-141 71.5l-16 12t-17 12q-125 96 -190.5 239.5t-65.5 317.5z" />
<glyph unicode="&#xc8;" horiz-adv-x="1079" d="M176 0v1366h760v-168h-565v-401h524v-168h-524v-463h581v-166h-776zM289 1792h205l161 -281h-131z" />
<glyph unicode="&#xc9;" horiz-adv-x="1079" d="M176 0v1366h760v-168h-565v-401h524v-168h-524v-463h581v-166h-776zM426 1511l162 281h205l-236 -281h-131z" />
<glyph unicode="&#xca;" horiz-adv-x="1079" d="M176 0v1366h760v-168h-565v-401h524v-168h-524v-463h581v-166h-776zM242 1511l204 281h183l207 -281h-170l-134 189l-139 -189h-151z" />
<glyph unicode="&#xcb;" horiz-adv-x="1079" d="M176 0v1366h760v-168h-565v-401h524v-168h-524v-463h581v-166h-776zM266 1550v199h178v-199h-178zM639 1550v199h178v-199h-178z" />
<glyph unicode="&#xcc;" horiz-adv-x="573" d="M35 1792h205l161 -281h-131zM188 0v1366h195v-1366h-195z" />
<glyph unicode="&#xcd;" horiz-adv-x="573" d="M172 1511l162 281h205l-236 -281h-131zM188 0v1366h195v-1366h-195z" />
<glyph unicode="&#xce;" horiz-adv-x="573" d="M-12 1511l205 281h182l207 -281h-170l-133 189l-140 -189h-151zM188 0v1366h195v-1366h-195z" />
<glyph unicode="&#xcf;" horiz-adv-x="573" d="M10 1550v199h178v-199h-178zM188 0v1366h195v-1366h-195zM383 1550v199h178v-199h-178z" />
<glyph unicode="&#xd0;" horiz-adv-x="1411" d="M39 629v164h137v573h281q70 0 108.5 -1t73.5 -3q10 -2 22.5 -3t24.5 -3q281 -31 453 -217.5t172 -460.5q0 -223 -123 -393t-334 -240q-72 -25 -159 -35t-210 -10h-309v629h-137zM369 168h100q121 0 190.5 8t128.5 29q6 4 13.5 6t15.5 6q135 57 212 181t77 286 q0 164 -90 296t-236 183q-53 18 -125.5 26.5t-183.5 8.5h-102v-405h340v-164h-340v-461z" />
<glyph unicode="&#xd1;" horiz-adv-x="1443" d="M176 0v1366h266l465 -805q53 -94 104.5 -191.5t84.5 -199.5q-4 47 -8.5 93t-6.5 91q0 31 -1 59.5t-1 59.5q0 14 -1 28.5t-1 30.5q0 43 -1 87.5t-1 89.5v657h193v-1366h-252l-432 741q-6 12 -12.5 23.5t-14.5 21.5q-2 4 -4 7.5t-4 7.5q-55 98 -108.5 199.5t-86.5 209.5 q10 -129 13.5 -258t3.5 -258v-694h-195zM387 1536q16 104 68.5 158.5t138.5 54.5q39 0 72.5 -12.5t66.5 -24.5q12 -6 22.5 -10t20.5 -8q23 -10 44.5 -15.5t43.5 -5.5q41 0 62.5 20.5t36.5 69.5h96q-14 -100 -66.5 -157.5t-128.5 -57.5q-37 0 -73.5 12.5t-71.5 26.5 q-23 8 -43.5 16.5t-40.5 14.5q-14 4 -28.5 6t-28.5 2q-37 0 -58.5 -21.5t-38.5 -68.5h-94z" />
<glyph unicode="&#xd2;" horiz-adv-x="569" />
<glyph unicode="&#xd3;" horiz-adv-x="1517" d="M98 682q0 305 171 507t487 202q317 0 490 -200t173 -509q0 -328 -177 -517.5t-480 -189.5q-315 0 -489.5 201t-174.5 506zM307 684q0 -248 126 -402.5t327 -154.5q199 0 324.5 153.5t125.5 395.5q0 254 -124.5 407.5t-331.5 153.5q-199 0 -323 -152.5t-124 -400.5z M645 1509l162 281h205l-236 -281h-131z" />
<glyph unicode="&#xd4;" horiz-adv-x="1517" d="M98 682q0 305 171 507t487 202q317 0 490 -200t173 -509q0 -328 -177 -517.5t-480 -189.5q-315 0 -489.5 201t-174.5 506zM307 684q0 -248 126 -402.5t327 -154.5q199 0 324.5 153.5t125.5 395.5q0 254 -124.5 407.5t-331.5 153.5q-199 0 -323 -152.5t-124 -400.5z M461 1509l205 281h182l207 -281h-170l-133 189l-140 -189h-151z" />
<glyph unicode="&#xd5;" horiz-adv-x="1517" d="M98 682q0 305 171 507t487 202q317 0 490 -200t173 -509q0 -328 -177 -517.5t-480 -189.5q-315 0 -489.5 201t-174.5 506zM307 684q0 -248 126 -402.5t327 -154.5q199 0 324.5 153.5t125.5 395.5q0 254 -124.5 407.5t-331.5 153.5q-199 0 -323 -152.5t-124 -400.5z M422 1536q16 104 68.5 158.5t138.5 54.5q39 0 72.5 -12.5t66.5 -24.5q12 -6 22.5 -10t20.5 -8q23 -10 44.5 -15.5t43.5 -5.5q41 0 62.5 20.5t35.5 69.5h97q-14 -100 -66.5 -157.5t-128.5 -57.5q-37 0 -74 12.5t-71 26.5q-23 8 -43.5 16.5t-40.5 14.5q-14 4 -28.5 6t-29.5 2 q-37 0 -58.5 -21.5t-37.5 -68.5h-94z" />
<glyph unicode="&#xd6;" horiz-adv-x="1517" d="M98 682q0 305 171 507t487 202q317 0 490 -200t173 -509q0 -328 -177 -517.5t-480 -189.5q-315 0 -489.5 201t-174.5 506zM307 684q0 -248 126 -402.5t327 -154.5q199 0 324.5 153.5t125.5 395.5q0 254 -124.5 407.5t-331.5 153.5q-199 0 -323 -152.5t-124 -400.5z M483 1550v199h179v-199h-179zM856 1550v199h178v-199h-178z" />
<glyph unicode="&#xd7;" d="M145 397l299 299l-299 299l107 107l299 -299l299 299l106 -107l-299 -299l299 -299l-106 -106l-299 299l-299 -299z" />
<glyph unicode="&#xd8;" horiz-adv-x="1517" d="M98 682q0 303 171 506t485 203q111 0 205 -24t169 -71l121 160l109 -84l-125 -164q90 -100 138 -233t48 -291q0 -328 -177 -518.5t-478 -190.5q-113 0 -212 28t-177 79l-127 -164l-107 84l131 172q-82 98 -128 231.5t-46 276.5zM307 684q0 -98 22.5 -185t67.5 -167 l615 825q-51 39 -117 59.5t-137 20.5q-203 0 -327 -151.5t-124 -401.5zM492 223q63 -49 128.5 -71.5t139.5 -22.5q201 0 325.5 153.5t124.5 395.5q0 106 -25.5 201.5t-76.5 175.5z" />
<glyph unicode="&#xd9;" horiz-adv-x="1409" d="M176 621v743h195v-715q0 -143 10 -217t39 -129q39 -76 116.5 -120t176.5 -44q170 0 242.5 107.5t80.5 257.5q2 20 2 50v87v723h195v-768q0 -156 -17.5 -244t-62.5 -159q-68 -106 -181.5 -162t-264.5 -56q-168 0 -293 72t-185 205q-27 59 -40 151.5t-13 217.5zM455 1790 h204l162 -281h-131z" />
<glyph unicode="&#xda;" horiz-adv-x="1409" d="M176 621v743h195v-715q0 -143 10 -217t39 -129q39 -76 116.5 -120t176.5 -44q170 0 242.5 107.5t80.5 257.5q2 20 2 50v87v723h195v-768q0 -156 -17.5 -244t-62.5 -159q-68 -106 -181.5 -162t-264.5 -56q-168 0 -293 72t-185 205q-27 59 -40 151.5t-13 217.5zM590 1509 l162 281h204l-235 -281h-131z" />
<glyph unicode="&#xdb;" horiz-adv-x="1409" d="M176 621v743h195v-715q0 -143 10 -217t39 -129q39 -76 116.5 -120t176.5 -44q170 0 242.5 107.5t80.5 257.5q2 20 2 50v87v723h195v-768q0 -156 -17.5 -244t-62.5 -159q-68 -106 -181.5 -162t-264.5 -56q-168 0 -293 72t-185 205q-27 59 -40 151.5t-13 217.5zM406 1509 l204 281h183l206 -281h-170l-133 189l-139 -189h-151z" />
<glyph unicode="&#xdc;" horiz-adv-x="1409" d="M176 621v743h195v-715q0 -143 10 -217t39 -129q39 -76 116.5 -120t176.5 -44q170 0 242.5 107.5t80.5 257.5q2 20 2 50v87v723h195v-768q0 -156 -17.5 -244t-62.5 -159q-68 -106 -181.5 -162t-264.5 -56q-168 0 -293 72t-185 205q-27 59 -40 151.5t-13 217.5zM430 1550 v199h178v-199h-178zM803 1550v199h178v-199h-178z" />
<glyph unicode="&#xdd;" horiz-adv-x="569" />
<glyph unicode="&#xde;" horiz-adv-x="1091" d="M176 0v1366h197v-192h76q141 0 214.5 -7.5t131.5 -29.5q117 -43 182 -141.5t65 -227.5t-63.5 -227.5t-177.5 -145.5q-53 -20 -130 -30.5t-190 -10.5h-108v-354h-197zM373 522h106h27.5t25.5 2q115 4 210.5 52.5t95.5 189.5q0 102 -69 165.5t-196 72.5q-25 2 -50 3t-50 1 q-25 2 -50.5 2h-49.5v-488z" />
<glyph unicode="&#xdf;" horiz-adv-x="1181" d="M141 0v811v76q0 152 15.5 239.5t54.5 153.5q57 98 158.5 152.5t232.5 54.5q184 0 299 -108.5t115 -284.5q0 -113 -61.5 -196t-172.5 -120q133 -6 219 -110.5t86 -261.5q0 -199 -130 -308.5t-320 -109.5h-20.5h-20.5q-27 2 -56.5 5t-72.5 7v164q33 -12 57.5 -19.5 t48.5 -9.5q10 0 20.5 -1t22.5 -1q123 0 198 77t75 202q0 170 -111.5 228t-259.5 58v150q127 0 214 53t87 195q0 109 -62.5 176t-162.5 67q-135 0 -190.5 -94t-69.5 -207q0 -10 -2 -21t-2 -24v-14t-2 -12v-48v-92v-827h-187z" />
<glyph unicode="&#xe0;" horiz-adv-x="1083" d="M88 287q0 158 136 242.5t388 84.5h11.5h9.5q25 0 52.5 -1t66.5 -3q-2 127 -62.5 188.5t-187.5 61.5q-47 0 -88 -7t-82 -24q-31 -10 -61.5 -26.5t-63.5 -38.5l-10 162q25 14 48 25.5t48 21.5q57 23 115.5 34t123.5 11q139 0 234.5 -53.5t134.5 -151.5q16 -45 23.5 -109.5 t7.5 -168.5v-195v-85t2 -85q0 -43 2 -85t6 -85h-170q0 16 -1 26.5t-1 20.5v15.5v15.5v17v16q0 14 1 28.5t1 32.5q-57 -96 -138 -140t-198 -44q-158 0 -253 81t-95 218zM285 289q0 -70 53 -113t139 -43q162 0 220.5 101.5t58.5 238.5q-14 2 -26.5 3t-22.5 1q-12 2 -23.5 2 h-28.5q-184 0 -277 -47t-93 -143zM289 1483h205l161 -281h-131z" />
<glyph unicode="&#xe1;" horiz-adv-x="1083" d="M88 287q0 158 136 242.5t388 84.5h11.5h9.5q25 0 52.5 -1t66.5 -3q-2 127 -62.5 188.5t-187.5 61.5q-47 0 -88 -7t-82 -24q-31 -10 -61.5 -26.5t-63.5 -38.5l-10 162q25 14 48 25.5t48 21.5q57 23 115.5 34t123.5 11q139 0 234.5 -53.5t134.5 -151.5q16 -45 23.5 -109.5 t7.5 -168.5v-195v-85t2 -85q0 -43 2 -85t6 -85h-170q0 16 -1 26.5t-1 20.5v15.5v15.5v17v16q0 14 1 28.5t1 32.5q-57 -96 -138 -140t-198 -44q-158 0 -253 81t-95 218zM285 289q0 -70 53 -113t139 -43q162 0 220.5 101.5t58.5 238.5q-14 2 -26.5 3t-22.5 1q-12 2 -23.5 2 h-28.5q-184 0 -277 -47t-93 -143zM426 1202l162 281h205l-236 -281h-131z" />
<glyph unicode="&#xe2;" horiz-adv-x="1083" d="M88 287q0 158 136 242.5t388 84.5h11.5h9.5q25 0 52.5 -1t66.5 -3q-2 127 -62.5 188.5t-187.5 61.5q-47 0 -88 -7t-82 -24q-31 -10 -61.5 -26.5t-63.5 -38.5l-10 162q25 14 48 25.5t48 21.5q57 23 115.5 34t123.5 11q139 0 234.5 -53.5t134.5 -151.5q16 -45 23.5 -109.5 t7.5 -168.5v-195v-85t2 -85q0 -43 2 -85t6 -85h-170q0 16 -1 26.5t-1 20.5v15.5v15.5v17v16q0 14 1 28.5t1 32.5q-57 -96 -138 -140t-198 -44q-158 0 -253 81t-95 218zM244 1202l205 281h182l207 -281h-170l-133 189l-140 -189h-151zM285 289q0 -70 53 -113t139 -43 q162 0 220.5 101.5t58.5 238.5q-14 2 -26.5 3t-22.5 1q-12 2 -23.5 2h-28.5q-184 0 -277 -47t-93 -143z" />
<glyph unicode="&#xe3;" horiz-adv-x="1083" d="M88 287q0 158 136 242.5t388 84.5h11.5h9.5q25 0 52.5 -1t66.5 -3q-2 127 -62.5 188.5t-187.5 61.5q-47 0 -88 -7t-82 -24q-31 -10 -61.5 -26.5t-63.5 -38.5l-10 162q25 14 48 25.5t48 21.5q57 23 115.5 34t123.5 11q139 0 234.5 -53.5t134.5 -151.5q16 -45 23.5 -109.5 t7.5 -168.5v-195v-85t2 -85q0 -43 2 -85t6 -85h-170q0 16 -1 26.5t-1 20.5v15.5v15.5v17v16q0 14 1 28.5t1 32.5q-57 -96 -138 -140t-198 -44q-158 0 -253 81t-95 218zM205 1229q16 104 68.5 158.5t138.5 54.5q39 0 72.5 -12.5t66.5 -24.5q12 -6 22.5 -10t20.5 -9 q23 -10 44 -15t44 -5q41 0 62.5 20.5t35.5 69.5h97q-14 -100 -66.5 -157.5t-128.5 -57.5q-37 0 -74 12.5t-71 26.5q-23 8 -43.5 16.5t-40.5 14.5q-14 4 -28.5 6t-29.5 2q-37 0 -58.5 -21.5t-37.5 -68.5h-94zM285 289q0 -70 53 -113t139 -43q162 0 220.5 101.5t58.5 238.5 q-14 2 -26.5 3t-22.5 1q-12 2 -23.5 2h-28.5q-184 0 -277 -47t-93 -143z" />
<glyph unicode="&#xe4;" horiz-adv-x="1083" d="M88 287q0 158 136 242.5t388 84.5h11.5h9.5q25 0 52.5 -1t66.5 -3q-2 127 -62.5 188.5t-187.5 61.5q-47 0 -88 -7t-82 -24q-31 -10 -61.5 -26.5t-63.5 -38.5l-10 162q25 14 48 25.5t48 21.5q57 23 115.5 34t123.5 11q139 0 234.5 -53.5t134.5 -151.5q16 -45 23.5 -109.5 t7.5 -168.5v-195v-85t2 -85q0 -43 2 -85t6 -85h-170q0 16 -1 26.5t-1 20.5v15.5v15.5v17v16q0 14 1 28.5t1 32.5q-57 -96 -138 -140t-198 -44q-158 0 -253 81t-95 218zM266 1243v199h178v-199h-178zM285 289q0 -70 53 -113t139 -43q162 0 220.5 101.5t58.5 238.5 q-14 2 -26.5 3t-22.5 1q-12 2 -23.5 2h-28.5q-184 0 -277 -47t-93 -143zM639 1243v199h178v-199h-178z" />
<glyph unicode="&#xe5;" horiz-adv-x="1083" d="M88 287q0 158 136 242.5t388 84.5h11.5h9.5q25 0 52.5 -1t66.5 -3q-2 127 -62.5 188.5t-187.5 61.5q-47 0 -88 -7t-82 -24q-31 -10 -61.5 -26.5t-63.5 -38.5l-10 162q25 14 48 25.5t48 21.5q57 23 115.5 34t123.5 11q139 0 234.5 -53.5t134.5 -151.5q16 -45 23.5 -109.5 t7.5 -168.5v-195v-85t2 -85q0 -43 2 -85t6 -85h-170q0 16 -1 26.5t-1 20.5v15.5v15.5v17v16q0 14 1 28.5t1 32.5q-57 -96 -138 -140t-198 -44q-158 0 -253 81t-95 218zM285 289q0 -70 53 -113t139 -43q162 0 220.5 101.5t58.5 238.5q-14 2 -26.5 3t-22.5 1q-12 2 -23.5 2 h-28.5q-184 0 -277 -47t-93 -143zM342 1343q0 82 58.5 140.5t140.5 58.5t140 -58.5t58 -140.5t-58 -140t-140 -58t-140.5 58.5t-58.5 139.5zM442 1343q0 -39 30 -68.5t69 -29.5q41 0 69.5 30t28.5 68q0 41 -28.5 70t-69.5 29q-39 0 -69 -29t-30 -70z" />
<glyph unicode="&#xe6;" horiz-adv-x="1751" d="M88 291q0 164 115.5 231.5t255.5 87.5q49 6 97 8.5t91 2.5h33.5h34.5q16 -2 33.5 -2.5t33.5 -0.5q-2 127 -80.5 185.5t-199.5 58.5q-76 0 -149.5 -23.5t-145.5 -72.5v170q29 14 55.5 26.5t54.5 20.5q55 18 110.5 27.5t111.5 9.5q123 0 215 -46t125 -124q39 80 130 125 t214 45q127 0 226 -56.5t155 -160.5q4 -8 7 -14.5t7 -14.5q27 -61 38 -131t13 -184h-708q10 -150 102 -238t242 -88q23 0 43 2t43 6q41 8 85 27.5t93 48.5v-180q-8 -4 -17.5 -7t-19.5 -5q-59 -20 -121.5 -28.5t-136.5 -8.5q-35 0 -75 4t-81 12q-92 20 -172 70.5t-98 142.5 q-23 -104 -127.5 -166.5t-255.5 -62.5q-170 0 -273.5 83t-103.5 220zM285 291q0 -70 54 -114t140 -44q127 0 215 98.5t88 241.5h-135q-31 0 -68.5 -2t-78.5 -6q-80 -12 -147.5 -50t-67.5 -124zM961 606h503q-8 133 -73.5 206t-171.5 73t-176 -76t-82 -203z" />
<glyph unicode="&#xe7;" horiz-adv-x="874" d="M80 500q0 225 142.5 369.5t361.5 144.5q61 0 118.5 -10.5t106.5 -30.5l-10 -164q-18 8 -34.5 15t-33.5 12q-27 8 -54.5 12t-58.5 4q-150 0 -246 -97.5t-96 -248.5q0 -158 92.5 -258.5t239.5 -100.5q47 0 87 8.5t77 26.5q12 4 23.5 11.5t23.5 13.5l17 -168 q-53 -27 -112.5 -39t-129.5 -12h-15.5t-21.5 2l-78 -107q23 6 38 8.5t28 2.5h7h5q70 0 115 -40t45 -102q0 -78 -66.5 -127t-173.5 -49q-37 0 -71.5 5t-69.5 18q-10 4 -21.5 8t-23.5 10l35 70q12 -4 24 -8.5t25 -6.5q18 -6 37.5 -8t44.5 -2q53 0 80.5 20.5t27.5 59.5 q0 31 -26.5 53.5t-65.5 22.5h-7h-7q-12 -2 -26.5 -5t-39.5 -10l-33 33l119 160q-190 43 -294.5 175t-104.5 329z" />
<glyph unicode="&#xe8;" horiz-adv-x="1069" d="M80 512q0 233 130 374.5t341 141.5q256 0 346 -178t90 -397h-721q18 -150 107.5 -236t226.5 -86q55 0 106.5 10.5t102.5 30.5q27 10 52.5 23.5t51.5 29.5v-178q-45 -20 -87 -33.5t-83 -21.5q-37 -8 -73.5 -12.5t-77.5 -4.5q-236 0 -374 144.5t-138 392.5zM268 598h533 q-12 113 -70.5 198t-185.5 85q-109 0 -183.5 -76t-93.5 -207zM283 1485h204l162 -281h-131z" />
<glyph unicode="&#xe9;" horiz-adv-x="1069" d="M80 512q0 233 130 374.5t341 141.5q256 0 346 -178t90 -397h-721q18 -150 107.5 -236t226.5 -86q55 0 106.5 10.5t102.5 30.5q27 10 52.5 23.5t51.5 29.5v-178q-45 -20 -87 -33.5t-83 -21.5q-37 -8 -73.5 -12.5t-77.5 -4.5q-236 0 -374 144.5t-138 392.5zM268 598h533 q-12 113 -70.5 198t-185.5 85q-109 0 -183.5 -76t-93.5 -207zM420 1204l162 281h204l-235 -281h-131z" />
<glyph unicode="&#xea;" horiz-adv-x="1069" d="M80 512q0 233 130 374.5t341 141.5q256 0 346 -178t90 -397h-721q18 -150 107.5 -236t226.5 -86q55 0 106.5 10.5t102.5 30.5q27 10 52.5 23.5t51.5 29.5v-178q-45 -20 -87 -33.5t-83 -21.5q-37 -8 -73.5 -12.5t-77.5 -4.5q-236 0 -374 144.5t-138 392.5zM236 1204 l204 281h183l206 -281h-170l-133 189l-139 -189h-151zM268 598h533q-12 113 -70.5 198t-185.5 85q-109 0 -183.5 -76t-93.5 -207z" />
<glyph unicode="&#xeb;" horiz-adv-x="1069" d="M80 512q0 233 130 374.5t341 141.5q256 0 346 -178t90 -397h-721q18 -150 107.5 -236t226.5 -86q55 0 106.5 10.5t102.5 30.5q27 10 52.5 23.5t51.5 29.5v-178q-45 -20 -87 -33.5t-83 -21.5q-37 -8 -73.5 -12.5t-77.5 -4.5q-236 0 -374 144.5t-138 392.5zM258 1245v199 h178v-199h-178zM268 598h533q-12 113 -70.5 198t-185.5 85q-109 0 -183.5 -76t-93.5 -207zM631 1245v199h178v-199h-178z" />
<glyph unicode="&#xec;" horiz-adv-x="468" d="M-16 1485h204l162 -281h-131zM141 0v1001h187v-1001h-187z" />
<glyph unicode="&#xed;" horiz-adv-x="468" d="M119 1204l162 281h204l-235 -281h-131zM141 0v1001h187v-1001h-187z" />
<glyph unicode="&#xee;" horiz-adv-x="468" d="M-63 1204l204 281h183l206 -281h-170l-133 189l-139 -189h-151zM141 0v1001h187v-1001h-187z" />
<glyph unicode="&#xef;" horiz-adv-x="468" d="M-41 1243v199h178v-199h-178zM141 0v1001h187v-1001h-187zM332 1243v199h178v-199h-178z" />
<glyph unicode="&#xf0;" horiz-adv-x="1187" d="M80 496q0 231 144.5 381.5t367.5 150.5h23.5t21.5 -2q18 0 36.5 -3t41.5 -9q-16 16 -30.5 31.5t-29.5 27.5q-23 20 -47 38.5t-51 35.5q-18 12 -38.5 23.5t-43.5 23.5l-293 -188l-55 90l231 145q-18 6 -34.5 12.5t-32.5 10.5q-16 6 -33.5 10t-38.5 10q-25 4 -55.5 10 t-71.5 15l35 90q55 -6 99 -12.5t87 -16.5q39 -8 78 -19.5t86 -27.5l271 176l57 -92l-205 -131q238 -98 372 -302t134 -466q0 -227 -138.5 -380t-373.5 -153q-223 0 -368.5 147.5t-145.5 373.5zM279 498q0 -166 89 -271.5t228 -105.5q137 0 225 103.5t88 264.5q0 180 -85 284 t-230 104q-139 0 -227 -105.5t-88 -273.5z" />
<glyph unicode="&#xf1;" horiz-adv-x="1169" d="M141 1001h174l9 -159q57 88 144 132t200 44q254 0 312 -166t60 -365v-11v-11v-465h-184v451q0 106 -3 151t-9 80q-2 4 -3 7t-1 7q-20 80 -75.5 122t-137.5 42q-92 0 -164 -55t-101 -150l-4 -16l-4 -16q-10 -39 -12 -90.5t-2 -165.5v-367h-186v494q0 31 -1 60.5t-1 57.5 q0 31 -1 60.5t-1 58.5q-2 68 -3.5 135.5t-5.5 134.5zM248 1231q16 104 68.5 158.5t138.5 54.5q39 0 72.5 -12.5t66.5 -24.5q12 -6 22.5 -10t20.5 -8q23 -10 44 -15.5t44 -5.5q41 0 62.5 20.5t35.5 69.5h97q-14 -100 -66.5 -157.5t-128.5 -57.5q-37 0 -74 12.5t-71 26.5 q-23 8 -43.5 16.5t-40.5 14.5q-14 4 -28.5 6t-29.5 2q-37 0 -58.5 -21.5t-37.5 -68.5h-94z" />
<glyph unicode="&#xf2;" horiz-adv-x="1185" d="M80 498q0 231 144.5 380.5t367.5 149.5q225 0 368.5 -148.5t145.5 -381.5q0 -229 -144.5 -376t-371.5 -147q-221 0 -365.5 147.5t-144.5 375.5zM276 500q0 -168 89.5 -273.5t228.5 -105.5q137 0 226 105.5t89 267.5q-2 170 -89 278.5t-226 108.5q-137 0 -227.5 -107.5 t-90.5 -273.5zM342 1485h205l162 -281h-131z" />
<glyph unicode="&#xf3;" horiz-adv-x="1185" d="M80 498q0 231 144.5 380.5t367.5 149.5q225 0 368.5 -148.5t145.5 -381.5q0 -229 -144.5 -376t-371.5 -147q-221 0 -365.5 147.5t-144.5 375.5zM276 500q0 -168 89.5 -273.5t228.5 -105.5q137 0 226 105.5t89 267.5q-2 170 -89 278.5t-226 108.5q-137 0 -227.5 -107.5 t-90.5 -273.5zM477 1204l162 281h205l-236 -281h-131z" />
<glyph unicode="&#xf4;" horiz-adv-x="1185" d="M80 498q0 231 144.5 380.5t367.5 149.5q225 0 368.5 -148.5t145.5 -381.5q0 -229 -144.5 -376t-371.5 -147q-221 0 -365.5 147.5t-144.5 375.5zM276 500q0 -168 89.5 -273.5t228.5 -105.5q137 0 226 105.5t89 267.5q-2 170 -89 278.5t-226 108.5q-137 0 -227.5 -107.5 t-90.5 -273.5zM295 1204l205 281h182l207 -281h-170l-133 189l-140 -189h-151z" />
<glyph unicode="&#xf5;" horiz-adv-x="1185" d="M80 498q0 231 144.5 380.5t367.5 149.5q225 0 368.5 -148.5t145.5 -381.5q0 -229 -144.5 -376t-371.5 -147q-221 0 -365.5 147.5t-144.5 375.5zM256 1231q16 104 68.5 158.5t138.5 54.5q39 0 72.5 -12.5t66.5 -24.5q12 -6 22.5 -10t20.5 -8q23 -10 44.5 -15.5t43.5 -5.5 q41 0 62.5 20.5t35.5 69.5h97q-14 -100 -66.5 -157.5t-128.5 -57.5q-37 0 -73.5 12.5t-71.5 26.5q-23 8 -43.5 16.5t-40.5 14.5q-14 4 -28.5 6t-29.5 2q-37 0 -58 -21.5t-38 -68.5h-94zM276 500q0 -168 89.5 -273.5t228.5 -105.5q137 0 226 105.5t89 267.5q-2 170 -89 278.5 t-226 108.5q-137 0 -227.5 -107.5t-90.5 -273.5z" />
<glyph unicode="&#xf6;" horiz-adv-x="1185" d="M80 498q0 231 144.5 380.5t367.5 149.5q225 0 368.5 -148.5t145.5 -381.5q0 -229 -144.5 -376t-371.5 -147q-221 0 -365.5 147.5t-144.5 375.5zM276 500q0 -168 89.5 -273.5t228.5 -105.5q137 0 226 105.5t89 267.5q-2 170 -89 278.5t-226 108.5q-137 0 -227.5 -107.5 t-90.5 -273.5zM317 1245v199h179v-199h-179zM690 1245v199h178v-199h-178z" />
<glyph unicode="&#xf7;" d="M78 621v151h942v-151h-942zM451 291v194h196v-194h-196zM451 907v197h196v-197h-196z" />
<glyph unicode="&#xf8;" horiz-adv-x="1185" d="M80 498q0 231 143.5 380.5t366.5 149.5q78 0 150.5 -20.5t133.5 -59.5l121 150l97 -78l-121 -150q66 -70 100.5 -166t34.5 -206q0 -229 -145.5 -376t-370.5 -147q-80 0 -149.5 19.5t-137.5 62.5l-121 -149l-94 80l123 149q-63 76 -97 166t-34 195zM276 498 q0 -61 13.5 -114.5t40.5 -102.5l436 542q-37 29 -80 43.5t-94 14.5q-137 0 -226.5 -107.5t-89.5 -275.5zM410 184q4 -4 9 -7t9 -7q39 -27 79 -38t87 -11q137 0 226 105.5t89 267.5q0 68 -15 128t-44 107z" />
<glyph unicode="&#xf9;" horiz-adv-x="1159" d="M129 469v530h186v-464q0 -111 5.5 -169.5t19.5 -97.5q27 -66 77 -100.5t120 -34.5q127 0 204.5 99.5t77.5 261.5v67v438h185v-630q0 -74 3 -148t7 -147q2 -18 3 -37t1 -37h-172l-8 156q-59 -84 -145.5 -126t-192.5 -42q-227 0 -299 144t-72 337zM328 1483h204l162 -281 h-131z" />
<glyph unicode="&#xfa;" horiz-adv-x="1159" d="M129 469v530h186v-464q0 -111 5.5 -169.5t19.5 -97.5q27 -66 77 -100.5t120 -34.5q127 0 204.5 99.5t77.5 261.5v67v438h185v-630q0 -74 3 -148t7 -147q2 -18 3 -37t1 -37h-172l-8 156q-59 -84 -145.5 -126t-192.5 -42q-227 0 -299 144t-72 337zM463 1202l162 281h204 l-235 -281h-131z" />
<glyph unicode="&#xfb;" horiz-adv-x="1159" d="M129 469v530h186v-464q0 -111 5.5 -169.5t19.5 -97.5q27 -66 77 -100.5t120 -34.5q127 0 204.5 99.5t77.5 261.5v67v438h185v-630q0 -74 3 -148t7 -147q2 -18 3 -37t1 -37h-172l-8 156q-59 -84 -145.5 -126t-192.5 -42q-227 0 -299 144t-72 337zM281 1202l204 281h183 l206 -281h-169l-134 189l-139 -189h-151z" />
<glyph unicode="&#xfc;" horiz-adv-x="1159" d="M129 469v530h186v-464q0 -111 5.5 -169.5t19.5 -97.5q27 -66 77 -100.5t120 -34.5q127 0 204.5 99.5t77.5 261.5v67v438h185v-630q0 -74 3 -148t7 -147q2 -18 3 -37t1 -37h-172l-8 156q-59 -84 -145.5 -126t-192.5 -42q-227 0 -299 144t-72 337zM303 1243v199h178v-199 h-178zM676 1243v199h178v-199h-178z" />
<glyph unicode="&#xfd;" horiz-adv-x="569" />
<glyph unicode="&#xfe;" horiz-adv-x="1187" d="M154 -420v1895h184v-476q0 -27 -1 -50t-3 -46q-2 -20 -4 -39.5t-4 -40.5q63 98 150 146.5t200 48.5q195 0 312.5 -139.5t117.5 -366.5q0 -238 -119 -381t-315 -143q-123 0 -207 46t-137 146q0 -25 2 -48l4 -46q0 -25 2 -48.5t2 -45.5v-412h-184zM338 498 q0 -150 85 -252.5t210 -102.5q119 0 197.5 101.5t78.5 255.5q0 162 -74.5 260t-199.5 98q-127 0 -212 -102.5t-85 -257.5z" />
<glyph unicode="&#xff;" horiz-adv-x="964" d="M12 1001h201l223 -632q25 -72 37 -119t16 -88q4 29 10.5 54.5t14.5 51.5q4 14 9 27.5t9 26.5l236 679h184l-356 -991q-4 -10 -9 -23.5t-9 -25.5q-51 -143 -131 -263t-259 -120h-19t-17 2q-16 2 -35 5t-43 9l10 148q16 -4 27.5 -8t23.5 -6q8 0 17.5 -1t19.5 -1 q88 0 138 62t77 138q2 8 5 17.5t5 17.5zM207 1245v199h178v-199h-178zM580 1245v199h178v-199h-178z" />
<glyph unicode="&#x152;" horiz-adv-x="1855" d="M98 694q0 207 104.5 369t286.5 237q66 27 149 42.5t189 19.5h8.5h8.5q25 2 60.5 2h125.5q29 0 57.5 1t57.5 1h57.5h57.5h450v-168h-549v-405h510v-168h-510v-459h568v-166h-658q-27 0 -53.5 1t-50.5 1q-27 2 -53.5 2h-53.5q-315 0 -538.5 178t-223.5 512zM307 694 q0 -242 147.5 -381t403.5 -143h56.5t54.5 -4v1032h-109q-266 -2 -409.5 -133t-143.5 -371z" />
<glyph unicode="&#x153;" horiz-adv-x="1851" d="M80 508q0 227 139 374.5t354 147.5q143 0 252 -60.5t144 -160.5q39 109 131 165t227 56q127 0 224.5 -55t152.5 -158l4 -8l4 -8q33 -66 45 -140.5t12 -201.5h-704q12 -154 102 -241t234 -87q57 0 105 12.5t96 36.5q18 8 34.5 19.5t34.5 23.5v-182q-68 -33 -143.5 -49.5 t-165.5 -16.5q-150 0 -255.5 58.5t-137.5 161.5q-33 -100 -139.5 -160t-245.5 -60q-221 0 -362.5 148.5t-141.5 384.5zM276 502q0 -164 86.5 -272.5t217.5 -108.5q133 0 219 107.5t86 271.5q0 168 -86 275.5t-221 107.5q-131 0 -216.5 -106.5t-85.5 -274.5zM1067 606h500 q-4 127 -69.5 202t-172.5 75q-102 0 -175 -78t-83 -199z" />
<glyph unicode="&#x178;" horiz-adv-x="1288" d="M10 1366h242l338 -512q16 -25 31.5 -49.5t27.5 -52.5q4 10 8.5 16t6.5 12q2 2 2 3v3q6 10 14 23.5t25 38.5l342 518h231l-533 -786v-580h-194v573zM371 1550v199h178v-199h-178zM743 1550v199h179v-199h-179z" />
<glyph unicode="&#x2c6;" horiz-adv-x="1024" d="M176 1231q16 104 68.5 158.5t138.5 54.5q39 0 72.5 -12.5t66.5 -24.5q12 -6 22.5 -10t20.5 -8q23 -10 44.5 -15.5t43.5 -5.5q41 0 62.5 20.5t36.5 69.5h96q-14 -100 -66.5 -157.5t-128.5 -57.5q-37 0 -73.5 12.5t-71.5 26.5q-23 8 -43.5 16.5t-40.5 14.5q-14 4 -28.5 6 t-28.5 2q-37 0 -58.5 -21.5t-38.5 -68.5h-94z" />
<glyph unicode="&#x2dc;" horiz-adv-x="1024" d="M215 1202l205 281h182l207 -281h-170l-133 189l-139 -189h-152z" />
<glyph unicode="&#x2000;" horiz-adv-x="923" />
<glyph unicode="&#x2001;" horiz-adv-x="1847" />
<glyph unicode="&#x2002;" horiz-adv-x="923" />
<glyph unicode="&#x2003;" horiz-adv-x="1847" />
<glyph unicode="&#x2004;" horiz-adv-x="615" />
<glyph unicode="&#x2005;" horiz-adv-x="461" />
<glyph unicode="&#x2006;" horiz-adv-x="307" />
<glyph unicode="&#x2007;" horiz-adv-x="307" />
<glyph unicode="&#x2008;" horiz-adv-x="230" />
<glyph unicode="&#x2009;" horiz-adv-x="369" />
<glyph unicode="&#x200a;" horiz-adv-x="102" />
<glyph unicode="&#x2010;" horiz-adv-x="514" d="M0 428v154h514v-154h-514z" />
<glyph unicode="&#x2011;" horiz-adv-x="514" d="M0 428v154h514v-154h-514z" />
<glyph unicode="&#x2012;" horiz-adv-x="514" d="M0 428v154h514v-154h-514z" />
<glyph unicode="&#x2013;" d="M86 428v154h926v-154h-926z" />
<glyph unicode="&#x2014;" horiz-adv-x="1456" d="M0 428v154h1456v-154h-1456z" />
<glyph unicode="&#x2018;" horiz-adv-x="559" d="M123 993l170 482h172l-123 -482h-219z" />
<glyph unicode="&#x2019;" horiz-adv-x="559" d="M94 993l123 482h219l-170 -482h-172z" />
<glyph unicode="&#x201a;" horiz-adv-x="559" d="M94 -262l123 481h219l-170 -481h-172z" />
<glyph unicode="&#x201c;" horiz-adv-x="931" d="M123 993l170 482h172l-123 -482h-219zM496 993l170 482h172l-123 -482h-219z" />
<glyph unicode="&#x201d;" horiz-adv-x="931" d="M94 993l123 482h219l-170 -482h-172zM467 993l121 482h221l-170 -482h-172z" />
<glyph unicode="&#x201e;" horiz-adv-x="931" d="M123 -264l123 483h219l-170 -483h-172zM496 -264l120 483h222l-170 -483h-172z" />
<glyph unicode="&#x2022;" horiz-adv-x="1228" d="M406 586q0 82 57 139t139 57q84 0 142.5 -57t58.5 -139t-58.5 -139.5t-142.5 -57.5q-82 0 -139 57.5t-57 139.5z" />
<glyph unicode="&#x2026;" horiz-adv-x="1642" d="M164 0v219h219v-219h-219zM711 0v219h221v-219h-221zM1260 0v219h219v-219h-219z" />
<glyph unicode="&#x202f;" horiz-adv-x="369" />
<glyph unicode="&#x2039;" horiz-adv-x="698" d="M111 506l274 397h178l-254 -397l258 -406h-174z" />
<glyph unicode="&#x203a;" horiz-adv-x="698" d="M131 100l258 406l-254 397h178l275 -397l-283 -406h-174z" />
<glyph unicode="&#x205f;" horiz-adv-x="461" />
<glyph unicode="&#x2122;" horiz-adv-x="1763" d="M0 1260v108h651v-108h-256v-672h-133v672h-262zM748 588v780h206l164 -389q25 -57 48.5 -113.5t41.5 -115.5q20 59 43 116.5t47 114.5l158 387h209v-780h-131v444v57.5t2 57.5v55.5v57.5q-25 -76 -53.5 -150t-59.5 -145l-155 -377h-125l-158 377q-10 29 -22.5 56.5 t-22.5 55.5q-18 43 -34.5 86t-33.5 86q2 -29 3.5 -56.5t3.5 -55.5q0 -29 1 -56.5t1 -56.5v-436h-133z" />
<glyph unicode="&#x25fc;" horiz-adv-x="1003" d="M0 0v1004h1004v-1004h-1004z" />
</font>
</defs>
</svg>
